<?xml version="1.0" standalone="no"?>
<!DOCTYPE svg PUBLIC "-//W3C//DTD SVG 20010904//EN"
 "http://www.w3.org/TR/2001/REC-SVG-20010904/DTD/svg10.dtd">
<svg version="1.0" xmlns="http://www.w3.org/2000/svg"
 width="600.000000pt" height="600.000000pt" viewBox="0 0 600.000000 600.000000"
 preserveAspectRatio="xMidYMid meet">
<metadata>
Created by potrace 1.11, written by Peter Selinger 2001-2013
</metadata>
<g transform="translate(0.000000,600.000000) scale(0.100000,-0.100000)"
fill="#000000" stroke="none">
<path d="M3170 5241 c0 -6 5 -11 10 -11 6 0 10 -4 10 -10 0 -5 -7 -10 -15 -10
-11 0 -15 -11 -15 -40 0 -40 -5 -46 -45 -52 -17 -3 -20 3 -23 40 -2 31 -7 42
-20 42 -13 0 -12 5 8 20 32 25 14 26 -24 1 -29 -20 -30 -20 -58 0 -28 20 -39
14 -16 -9 9 -9 8 -12 -5 -12 -13 0 -17 -9 -17 -40 0 -33 -4 -42 -22 -49 -13
-5 -35 -4 -50 1 -23 8 -26 13 -18 34 8 19 5 29 -10 44 -19 19 -19 20 1 31 11
6 18 13 15 16 -3 3 -20 -4 -39 -16 -34 -20 -34 -20 -55 -1 -12 12 -23 16 -27
10 -3 -6 2 -13 12 -17 16 -6 15 -8 -6 -13 -21 -5 -25 -12 -25 -45 -1 -37 -3
-40 -28 -40 -37 -1 -42 -9 -39 -60 2 -29 -2 -45 -9 -45 -6 0 -8 -5 -4 -11 5
-8 1 -8 -14 0 -24 13 -39 -1 -34 -31 2 -10 -1 -18 -6 -18 -5 0 -8 11 -7 25 3
19 -1 25 -15 25 -29 0 -50 -11 -43 -23 7 -12 5 -122 -3 -149 -5 -15 1 -18 35
-18 42 0 53 -16 32 -48 -6 -11 -11 -10 -25 3 -9 10 -20 14 -24 10 -4 -3 2 -13
12 -21 19 -14 19 -14 -2 -14 -19 0 -22 -6 -22 -39 0 -39 -11 -55 -40 -56 -9 0
-15 -11 -16 -30 -2 -30 -13 -99 -17 -100 -1 -1 -15 -11 -31 -23 l-28 -22 -26
20 c-14 11 -28 17 -31 14 -3 -4 0 -9 7 -11 17 -6 15 -23 -2 -23 -10 0 -16 -14
-18 -42 -2 -36 -7 -44 -25 -46 -13 -2 -24 -8 -24 -13 -1 -5 -3 -13 -4 -19 -1
-5 -3 -17 -4 -25 0 -8 -7 -12 -16 -9 -8 4 -15 2 -15 -3 0 -6 -10 -14 -23 -20
-18 -8 -28 -7 -46 8 -13 11 -27 17 -30 13 -3 -3 3 -12 13 -20 19 -14 19 -14
-2 -14 -17 0 -21 -7 -24 -42 -2 -29 -7 -42 -16 -40 -7 1 -25 -6 -38 -17 -21
-17 -29 -18 -45 -8 -10 6 -19 15 -19 20 0 4 -5 5 -10 2 -8 -5 -7 -11 1 -21 9
-11 8 -14 -5 -14 -12 0 -16 -10 -16 -41 0 -35 -4 -41 -28 -50 -15 -5 -28 -17
-29 -27 0 -9 -4 -40 -7 -68 -6 -46 -5 -52 11 -50 28 2 43 41 52 136 2 12 81 5
81 -6 0 -7 11 -11 25 -9 25 2 26 0 23 -44 l-3 -46 -60 0 -60 0 -2 -49 c-2 -35
-9 -56 -24 -73 -27 -28 -30 -28 -56 -4 -23 21 -40 16 -22 -6 9 -10 8 -13 -5
-13 -12 0 -16 -10 -16 -41 0 -35 -4 -41 -28 -50 -16 -5 -29 -15 -29 -22 0 -7
-4 -38 -8 -70 -7 -54 -6 -58 11 -55 28 5 42 28 47 83 3 28 6 52 6 56 1 3 29 4
64 4 l62 -2 1 -51 c1 -29 -2 -49 -7 -46 -5 3 -9 0 -9 -7 0 -9 -3 -9 -14 0 -17
14 -32 -3 -28 -34 l2 -20 -9 20 c-5 11 -7 23 -4 28 6 11 -55 8 -62 -3 -3 -5
-2 -10 4 -10 5 0 8 -9 6 -21 -2 -11 -5 -54 -7 -94 -2 -65 -4 -75 -24 -84 -17
-7 -26 -5 -42 9 -19 18 -32 17 -32 -2 0 -5 5 -6 10 -3 6 3 10 1 10 -4 0 -6 -6
-11 -14 -11 -10 0 -16 -14 -18 -42 -2 -36 -7 -44 -25 -46 -13 -2 -23 -4 -23
-5 -6 -28 -14 -89 -14 -111 -1 -31 28 -46 38 -20 3 7 11 11 18 9 11 -4 12 -26
5 -108 -9 -106 -13 -117 -42 -121 -19 -3 -21 -8 -30 -91 -5 -45 -4 -51 13 -52
24 -2 40 28 46 87 3 25 5 47 5 50 1 3 30 5 65 5 62 0 63 0 64 -27 0 -17 -5
-28 -13 -28 -7 0 -15 -10 -19 -22 -3 -13 -15 -29 -27 -36 -11 -8 -18 -9 -14
-3 4 7 -5 11 -23 11 l-30 0 -1 -77 c-1 -61 -5 -81 -18 -90 -14 -11 -21 -9 -39
8 -13 12 -24 16 -28 10 -4 -5 2 -14 11 -20 16 -9 16 -10 -4 -11 -19 0 -22 -6
-25 -42 l-3 -43 -49 0 -50 0 3 -52 c2 -50 2 -51 -23 -49 -14 2 -26 0 -26 -5 0
-4 -12 -6 -26 -3 -35 6 -66 -4 -57 -19 8 -13 6 -120 -3 -149 -5 -16 2 -18 60
-18 l66 0 0 85 c0 47 4 85 9 85 5 0 11 -5 13 -11 6 -17 58 -20 58 -3 0 8 5 13
11 12 7 -2 11 19 12 57 l2 60 40 0 c22 1 48 -3 58 -7 11 -6 17 -5 17 2 0 6 4
9 8 6 5 -3 9 -27 11 -54 2 -54 6 -51 -77 -52 -24 0 -45 -6 -47 -13 -2 -7 -5
-49 -7 -94 l-3 -83 62 0 61 0 0 43 c0 23 0 65 1 92 1 44 3 48 15 33 7 -10 21
-18 30 -18 15 0 16 10 14 73 -2 39 -7 72 -13 73 -32 3 -43 16 -35 44 4 16 6
31 2 34 -3 3 15 6 40 6 l45 0 2 51 c2 58 6 70 24 63 15 -5 11 -143 -5 -161 -8
-10 6 -13 66 -13 57 0 75 3 70 12 -9 14 -7 149 2 157 4 3 9 0 11 -6 8 -22 43
-15 43 7 0 18 7 20 64 20 l64 0 0 68 c0 37 1 78 1 91 l1 25 21 -22 c11 -12 24
-20 28 -18 4 3 11 45 15 93 4 48 9 97 11 108 1 11 3 25 4 30 0 6 27 10 63 9
l63 -1 3 -46 c3 -44 2 -47 -25 -53 -15 -4 -34 -12 -42 -18 -11 -8 -13 -8 -7 2
5 8 -1 12 -22 12 l-29 0 -2 -80 c-1 -44 -4 -87 -7 -95 -5 -12 6 -15 66 -15 51
0 69 3 64 11 -12 20 -10 159 2 159 7 0 14 -7 18 -15 3 -8 12 -12 21 -9 11 5
15 22 15 69 0 58 2 63 20 58 14 -4 20 0 20 11 0 10 5 14 10 11 6 -4 10 9 11
32 1 21 2 43 4 48 1 6 3 17 3 26 2 12 15 15 65 14 l62 -2 1 -52 c2 -48 0 -52
-20 -50 -11 0 -25 0 -31 -1 -5 -1 -23 -3 -40 -3 -28 -2 -29 -3 -32 -62 -1 -33
-5 -75 -7 -92 l-5 -33 70 0 c52 0 68 3 63 12 -9 14 -7 149 2 157 4 3 9 0 11
-6 3 -7 13 -13 24 -13 16 0 19 7 19 45 0 31 4 45 13 45 23 0 44 63 47 136 0 8
18 10 55 8 46 -3 56 -1 65 15 14 26 13 81 -2 81 -6 0 -3 10 8 22 17 19 17 21
2 15 -19 -7 -20 -6 -20 48 0 94 2 101 16 83 7 -10 21 -18 30 -18 15 0 16 10
14 73 -2 39 -7 72 -13 72 -5 0 -16 4 -22 8 -15 9 -15 8 -15 -58 0 -56 3 -54
-88 -58 l-35 -2 -5 -90 c-3 -49 -2 -91 3 -93 4 -2 7 -21 7 -42 0 -32 -5 -41
-27 -52 -18 -9 -28 -23 -30 -43 -6 -42 -20 -57 -43 -43 -14 9 -16 17 -10 40 7
23 5 31 -13 43 l-22 15 23 6 c12 4 22 10 22 15 0 15 -20 10 -47 -11 -25 -20
-25 -20 -51 0 -14 11 -28 17 -31 14 -3 -4 0 -9 7 -11 17 -6 15 -23 -3 -23 -11
0 -15 -11 -15 -40 0 -38 -18 -61 -45 -57 -5 1 -11 -11 -12 -28 -6 -88 -13 -99
-55 -81 -14 6 -15 13 -7 34 9 22 7 30 -11 44 l-21 17 23 12 c15 8 19 14 10 17
-7 2 -24 -6 -37 -18 l-24 -22 -27 21 c-15 12 -30 19 -33 15 -3 -3 3 -12 13
-20 19 -14 19 -14 -2 -14 -19 0 -22 -6 -22 -37 0 -45 -8 -58 -35 -58 -20 0
-21 -3 -24 -50 0 -14 -5 -25 -9 -25 -4 0 -6 16 -4 35 3 26 0 36 -13 41 -16 6
-15 9 6 25 20 15 21 19 7 19 -10 0 -18 -4 -18 -8 0 -5 -11 -14 -24 -20 -20 -9
-28 -7 -47 9 -25 22 -39 18 -19 -6 10 -12 10 -15 -4 -15 -12 0 -16 -10 -16
-39 0 -33 -4 -42 -27 -53 -14 -7 -27 -21 -29 -31 -1 -11 -4 -20 -6 -21 -2 -1
-16 -12 -32 -24 l-28 -22 -26 20 c-14 11 -28 17 -31 14 -3 -4 0 -9 7 -11 17
-6 15 -23 -3 -23 -8 0 -15 -4 -15 -10 0 -5 -7 -10 -16 -10 -9 0 -12 5 -8 11 4
7 6 57 6 113 -1 86 1 98 12 84 7 -10 21 -18 30 -18 13 0 16 12 16 70 0 54 -4
72 -15 75 -8 3 -22 7 -30 10 -11 3 -13 11 -7 27 11 32 4 58 -16 58 -13 0 -11
5 8 20 15 12 41 20 66 20 l41 0 2 82 c2 78 8 108 18 81 3 -7 13 -13 24 -13 18
0 20 6 17 73 -2 39 -7 72 -13 73 -27 2 -42 17 -38 35 4 16 14 19 58 19 l53 0
1 82 c1 45 4 84 7 87 8 9 23 -21 17 -36 -4 -10 10 -13 60 -13 l65 0 1 82 c1
45 4 84 6 87 3 2 11 -3 18 -12 7 -11 17 -14 25 -8 18 11 13 147 -6 144 -6 -2
-12 2 -12 8 0 8 -4 8 -13 1 -9 -8 -12 -31 -10 -69 1 -32 -1 -53 -5 -48 -10 14
-36 12 -58 -5 -14 -12 -16 -12 -9 -1 6 11 1 13 -25 9 -39 -6 -45 6 -36 66 l7
44 47 -4 c51 -3 85 3 78 15 -7 10 9 32 25 34 8 2 15 6 16 11 1 5 6 12 11 15 5
3 12 31 15 61 4 30 7 56 7 56 0 1 21 0 48 -2 47 -3 88 3 79 13 -3 2 -1 18 3
34 7 23 5 32 -12 43 -20 14 -20 14 4 27 12 7 29 12 36 11 11 -3 17 11 13 31
-1 5 3 6 9 2 6 -4 10 8 11 29 1 20 3 41 4 46 1 6 3 16 4 23 1 9 20 13 64 13
l64 0 0 -59 c0 -33 -2 -55 -6 -51 -7 11 -41 15 -41 5 0 -3 -18 -5 -40 -5 -39
2 -60 -9 -41 -20 5 -3 7 -24 5 -46 -2 -22 -6 -58 -8 -80 l-4 -40 62 0 62 0 1
81 c2 76 10 110 20 82 3 -7 13 -13 24 -13 14 0 19 7 19 30 0 29 2 30 42 30 26
0 38 4 33 9 -12 12 -7 161 6 161 5 0 9 -6 9 -14 0 -9 7 -12 20 -9 15 4 20 14
21 42 4 135 10 225 15 230 3 3 10 -2 15 -11 10 -19 49 -13 49 7 0 8 8 11 18 8
15 -3 18 -13 15 -56 -1 -29 -5 -67 -7 -84 l-5 -33 70 0 c52 0 68 3 63 12 -4 7
-7 37 -7 67 2 99 2 96 15 83 7 -7 20 -12 30 -12 19 0 27 30 31 110 l2 46 66
-1 65 0 1 -52 c1 -53 0 -53 -31 -54 -97 -3 -91 1 -93 -54 -2 -27 -4 -69 -7
-92 l-4 -43 70 0 c49 0 67 3 62 11 -8 14 -8 149 1 157 4 4 11 -1 16 -11 12
-21 49 -23 49 -2 0 12 4 14 17 7 13 -8 16 -23 14 -73 -1 -35 -4 -72 -7 -81 -4
-15 1 -18 28 -18 l33 -1 -23 -19 c-19 -16 -27 -17 -43 -7 -10 6 -19 15 -19 20
0 4 -5 5 -10 2 -8 -5 -7 -11 1 -21 9 -11 8 -14 -4 -14 -11 0 -17 -12 -19 -42
-2 -36 -7 -44 -25 -46 -18 -3 -24 -12 -29 -43 -7 -40 -11 -43 -38 -33 -10 4
-13 12 -7 27 10 31 3 57 -17 57 -15 1 -15 3 2 15 11 8 16 18 12 22 -4 4 -10 3
-14 -3 -4 -6 -16 -16 -28 -22 -17 -9 -25 -8 -41 8 -23 20 -40 15 -22 -7 9 -10
8 -13 -5 -13 -12 0 -16 -10 -16 -41 0 -35 -4 -41 -28 -50 -23 -8 -28 -16 -30
-47 -2 -25 -10 -44 -28 -60 l-25 -22 -30 21 c-29 20 -40 14 -17 -9 9 -9 8 -12
-5 -12 -13 0 -17 -9 -17 -40 0 -37 -14 -56 -45 -59 -5 0 -11 -9 -11 -18 -1
-10 -5 -42 -9 -71 -7 -49 -6 -53 11 -50 28 5 42 28 47 83 3 28 6 52 6 56 1 8
74 5 88 -4 6 -4 14 -3 18 3 13 21 20 8 23 -40 2 -32 -1 -50 -8 -50 -6 0 -8 -5
-4 -11 5 -8 1 -8 -13 0 -11 6 -23 7 -27 3 -4 -3 -22 -5 -40 -4 l-33 3 -2 -57
c-1 -65 -2 -67 -26 -58 -17 7 -17 8 0 21 10 7 15 16 12 20 -4 3 -18 -4 -31
-16 l-25 -23 -27 21 c-15 12 -30 19 -33 15 -3 -3 3 -12 13 -20 19 -14 19 -14
-2 -14 -19 0 -22 -6 -22 -39 0 -33 -4 -42 -27 -53 -14 -7 -28 -22 -29 -33 -17
-108 -17 -111 5 -112 13 -1 21 4 21 13 0 12 4 12 20 4 11 -6 18 -14 16 -19 -3
-4 -6 -29 -6 -57 -3 -81 -9 -102 -33 -108 -13 -3 -23 -13 -24 -23 0 -10 -4
-41 -8 -68 -6 -47 -5 -51 14 -51 12 0 21 6 21 13 0 7 5 12 11 10 7 -1 12 18
13 48 2 28 4 55 4 61 2 11 81 12 99 1 21 -13 43 62 28 96 -4 10 -2 23 5 32 7
9 8 15 2 15 -13 0 -22 39 -10 46 5 3 15 -1 21 -10 7 -10 17 -12 25 -7 18 11
13 147 -5 144 -7 -2 -13 2 -13 7 0 6 25 10 55 10 39 0 55 4 54 13 -5 42 3 157
11 157 6 0 10 -6 10 -14 0 -9 7 -12 20 -9 15 4 20 14 20 39 l0 34 59 0 59 0
-1 82 c0 55 3 83 11 86 7 2 12 -4 12 -13 0 -14 3 -15 14 -6 11 9 15 9 19 -1 3
-7 6 11 6 41 1 30 4 52 7 48 14 -14 32 23 37 79 3 32 6 59 6 60 3 4 79 -4 88
-9 17 -11 43 32 43 70 0 25 -4 33 -17 33 -28 1 27 40 55 40 18 0 21 3 14 16
-14 25 -2 64 19 64 17 0 24 11 20 33 -1 4 7 2 17 -4 12 -7 17 -21 15 -38 -1
-14 -4 -52 -6 -83 l-4 -58 70 0 c54 0 67 3 60 13 -5 6 -8 32 -7 57 2 25 3 60
3 78 1 42 21 32 21 -10 0 -27 2 -29 17 -17 11 10 14 10 9 2 -4 -7 -2 -13 3
-13 6 0 11 10 11 23 0 18 2 19 10 7 11 -17 13 -9 10 33 -1 15 1 40 5 55 5 26
8 27 69 28 l63 0 2 -51 2 -52 -57 -2 c-32 -1 -61 -4 -65 -6 -3 -3 -7 -37 -8
-77 -1 -40 -4 -81 -7 -90 -5 -16 3 -18 66 -18 51 0 69 3 64 12 -7 11 -6 149 1
157 2 2 11 -4 21 -13 13 -14 19 -14 32 -4 13 11 14 11 7 -1 -14 -24 -18 -91
-5 -91 6 0 8 5 4 13 -6 9 -4 9 8 -1 13 -10 17 -10 21 3 10 24 34 7 31 -23 -2
-15 -5 -53 -7 -84 l-4 -58 69 0 c62 0 68 2 61 18 -5 9 -6 50 -3 91 5 73 5 73
24 52 11 -11 23 -21 28 -21 4 0 8 34 8 76 0 74 0 75 -29 85 -26 9 -29 13 -21
35 8 19 5 29 -10 44 -19 19 -19 20 1 31 11 6 18 13 15 16 -3 3 -20 -4 -39 -16
-34 -20 -34 -20 -55 -1 -11 11 -24 16 -27 11 -3 -6 3 -14 12 -20 16 -9 15 -10
-7 -11 -23 0 -25 -4 -25 -42 0 -35 -4 -43 -20 -46 -11 -3 -23 -9 -27 -16 -4
-6 -8 12 -8 41 0 46 -3 52 -28 64 -24 10 -27 16 -24 50 3 33 1 39 -14 39 -16
0 -15 3 6 20 14 11 19 20 12 20 -8 0 -25 -9 -39 -20 -24 -19 -27 -19 -44 -4
-10 9 -24 14 -31 11 -10 -4 -10 -6 0 -6 17 -1 15 -21 -2 -21 -10 0 -16 -13
-18 -42 -3 -45 -22 -62 -31 -28 -3 11 -9 20 -14 19 -4 -1 -15 1 -25 5 -13 6
-14 14 -8 37 7 24 5 32 -11 42 -19 12 -19 12 3 29 20 15 20 18 6 18 -10 0 -18
-4 -18 -8 0 -5 -10 -14 -22 -19 -18 -8 -29 -6 -50 9 -28 19 -39 13 -16 -10 9
-9 8 -12 -5 -12 -13 0 -17 -10 -19 -42 -1 -36 -2 -38 -5 -11 -3 23 -8 30 -19
26 -8 -3 -14 0 -14 6 0 6 -7 11 -15 11 -11 0 -12 5 -5 25 8 20 6 29 -10 45
-19 19 -19 20 1 31 11 6 18 13 15 16 -3 3 -20 -4 -39 -16 -34 -20 -34 -20 -55
-1 -12 12 -23 16 -27 10 -3 -6 2 -13 12 -17 16 -6 15 -8 -6 -13 -21 -5 -25
-12 -25 -45 -1 -37 -3 -40 -31 -41 -48 -1 -61 13 -57 57 3 33 1 39 -14 39 -16
0 -15 3 6 20 14 11 20 20 14 20 -6 0 -23 -9 -38 -21 -24 -19 -29 -20 -44 -7
-27 24 -42 30 -42 19z m-301 -188 c1 -49 0 -51 -24 -49 -14 2 -25 0 -25 -3 0
-3 -20 -6 -45 -6 -42 -1 -45 1 -45 26 0 14 3 39 6 55 5 28 7 29 68 29 l63 0 2
-52z m218 0 c0 -47 -2 -53 -21 -52 -11 0 -43 -1 -70 -4 l-48 -4 6 56 c3 31 5
56 6 56 0 1 29 1 64 0 l63 0 0 -52z m421 -7 c0 -32 -3 -54 -7 -50 -7 11 -41
15 -41 5 0 -3 -20 -6 -45 -6 -42 -1 -45 1 -45 26 0 14 3 39 6 55 5 28 7 29 69
29 l63 0 0 -59z m187 -62 c0 -45 -2 -49 -25 -52 -14 -2 -31 -9 -39 -15 -12
-10 -13 -9 -7 1 6 10 2 13 -15 12 -53 -5 -53 -5 -40 101 1 3 29 4 64 4 l62 -2
0 -49z m-465 -20 c0 -8 -4 -14 -8 -14 -4 0 -8 9 -8 19 0 11 4 17 8 15 4 -3 8
-12 8 -20z m-558 -49 c-5 -53 -16 -53 -14 0 1 66 2 71 10 58 4 -6 6 -32 4 -58z
m69 52 c-1 -12 -15 -9 -19 4 -3 6 1 10 8 8 6 -3 11 -8 11 -12z m286 -19 c-3
-7 -5 -2 -5 12 0 14 2 19 5 13 2 -7 2 -19 0 -25z m480 10 c-3 -8 -6 -5 -6 6
-1 11 2 17 5 13 3 -3 4 -12 1 -19z m-60 -13 c0 -8 -4 -12 -9 -9 -5 3 -6 10 -3
15 9 13 12 11 12 -6z m-840 -20 c0 -8 -4 -12 -9 -9 -5 3 -6 10 -3 15 9 13 12
11 12 -6z m420 -17 c-3 -8 -6 -5 -6 6 -1 11 2 17 5 13 3 -3 4 -12 1 -19z m423
2 c0 -5 -2 -10 -4 -10 -3 0 -8 5 -11 10 -3 6 -1 10 4 10 6 0 11 -4 11 -10z
m657 -13 c6 -4 14 -3 18 3 14 23 23 7 23 -44 -1 -51 -2 -54 -24 -51 -13 1 -24
-1 -24 -4 0 -3 -20 -6 -45 -6 -42 0 -45 1 -45 26 0 15 3 40 6 56 5 26 10 29
42 29 21 -1 42 -4 49 -9z m-470 -34 c-3 -10 -5 -4 -5 12 0 17 2 24 5 18 2 -7
2 -21 0 -30z m-904 -32 c-2 -18 3 -21 32 -21 33 0 34 -1 33 -37 -1 -21 -3 -32
-6 -25 -2 7 -8 10 -12 7 -8 -5 -90 -9 -114 -6 -5 1 -3 8 4 16 9 11 9 15 1 15
-7 0 -10 11 -7 28 2 15 5 32 5 38 1 7 15 11 34 9 26 -2 32 -7 30 -24z m489 7
c-7 -7 -12 -8 -12 -2 0 6 3 14 7 17 3 4 9 5 12 2 2 -3 -1 -11 -7 -17z m228 -9
c0 -6 -4 -7 -10 -4 -5 3 -10 11 -10 16 0 6 5 7 10 4 6 -3 10 -11 10 -16z m397
6 c0 -8 -4 -12 -9 -9 -5 3 -6 10 -3 15 9 13 12 11 12 -6z m-1237 -5 c0 -5 -2
-10 -4 -10 -3 0 -8 5 -11 10 -3 6 -1 10 4 10 6 0 11 -4 11 -10z m1027 -12 c-3
-8 -6 -5 -6 6 -1 11 2 17 5 13 3 -3 4 -12 1 -19z m213 -18 c0 -5 -2 -10 -4
-10 -3 0 -8 5 -11 10 -3 6 -1 10 4 10 6 0 11 -4 11 -10z m-210 -31 c0 -11 -4
-18 -10 -14 -5 3 -7 12 -3 20 7 21 13 19 13 -6z m447 -4 c0 -8 -4 -12 -9 -9
-5 3 -6 10 -3 15 9 13 12 11 12 -6z m-237 -35 c0 -5 -5 -10 -11 -10 -5 0 -7 5
-4 10 3 6 8 10 11 10 2 0 4 -4 4 -10z m236 -19 c0 -17 -3 -28 -6 -26 -5 3 -6
38 -1 53 4 10 7 -3 7 -27z m-1348 -32 c1 -37 -5 -35 -12 4 -2 15 -1 27 3 27 4
0 8 -14 9 -31z m451 -93 c6 -4 11 -2 11 4 0 6 4 9 9 6 14 -9 7 -88 -9 -96 -8
-4 -26 -12 -39 -19 -17 -10 -21 -10 -16 0 6 8 -2 10 -29 7 l-38 -4 6 55 c3 31
5 56 6 57 1 4 90 -5 99 -10z m-449 0 c0 -3 -4 -8 -10 -11 -5 -3 -10 -1 -10 4
0 6 5 11 10 11 6 0 10 -2 10 -4z m-132 -91 c1 -14 -2 -25 -6 -25 -7 0 -8 31
-3 48 3 8 7 -2 9 -23z m488 -42 c-3 -8 -6 -30 -6 -48 0 -33 -6 -36 -41 -21
-13 6 -15 13 -8 34 19 57 21 60 40 55 13 -4 18 -11 15 -20z m-489 -8 c0 -8 -4
-12 -9 -9 -5 3 -6 10 -3 15 9 13 12 11 12 -6z m550 -22 c-3 -10 -5 -4 -5 12 0
17 2 24 5 18 2 -7 2 -21 0 -30z m-550 -18 c0 -8 -4 -12 -9 -9 -5 3 -6 10 -3
15 9 13 12 11 12 -6z m545 -37 c-8 -8 -9 -4 -5 13 4 13 8 18 11 10 2 -7 -1
-18 -6 -23z m8 -48 c0 -5 -2 -10 -4 -10 -3 0 -8 5 -11 10 -3 6 -1 10 4 10 6 0
11 -4 11 -10z m-886 -34 c-3 -8 -12 -12 -20 -9 -17 6 -9 23 11 23 8 0 12 -6 9
-14z m706 -51 c0 -8 -2 -15 -4 -15 -2 0 -6 7 -10 15 -3 8 -1 15 4 15 6 0 10
-7 10 -15z m0 -35 c0 -5 -2 -10 -4 -10 -3 0 -8 5 -11 10 -3 6 -1 10 4 10 6 0
11 -4 11 -10z m-2 -45 c-3 -3 -9 2 -12 12 -6 14 -5 15 5 6 7 -7 10 -15 7 -18z
m2 -49 c0 -3 -4 -8 -10 -11 -5 -3 -10 -1 -10 4 0 6 5 11 10 11 6 0 10 -2 10
-4z m-78 -38 c-5 -5 -7 -29 -5 -53 6 -49 0 -53 -86 -59 -50 -3 -51 -2 -51 24
0 15 3 41 6 56 5 26 10 29 42 29 20 0 42 -3 47 -7 13 -8 47 16 37 27 -4 5 -1
5 6 0 9 -4 10 -11 4 -17z m-695 -37 c0 -11 -5 -18 -9 -15 -4 3 -5 11 -1 19 7
21 12 19 10 -4z m0 -76 c0 -8 -4 -12 -9 -9 -5 3 -6 10 -3 15 9 13 12 11 12 -6z
m631 -51 c-3 -14 -5 -12 -10 9 -3 19 -2 25 4 19 6 -6 8 -18 6 -28z m-633 16
c3 -5 1 -10 -4 -10 -6 0 -11 5 -11 10 0 6 2 10 4 10 3 0 8 -4 11 -10z m-145
-17 c0 -5 -5 -15 -10 -23 -7 -12 -9 -10 -7 8 1 19 17 33 17 15z m-70 -83 c0
-5 -5 -10 -11 -10 -5 0 -7 5 -4 10 3 6 8 10 11 10 2 0 4 -4 4 -10z m65 -20 c3
-5 1 -10 -4 -10 -6 0 -11 5 -11 10 0 6 2 10 4 10 3 0 8 -4 11 -10z m785 -210
c0 -11 -2 -20 -4 -20 -2 0 -6 9 -9 20 -3 11 -1 20 4 20 5 0 9 -9 9 -20z m-900
-50 c0 -5 -2 -10 -4 -10 -3 0 -8 5 -11 10 -3 6 -1 10 4 10 6 0 11 -4 11 -10z
m-2 -45 c-3 -3 -9 2 -12 12 -6 14 -5 15 5 6 7 -7 10 -15 7 -18z m2 -49 c0 -3
-4 -8 -10 -11 -5 -3 -10 -1 -10 4 0 6 5 11 10 11 6 0 10 -2 10 -4z m-54 -211
c-1 -42 -4 -50 -21 -52 -11 -1 -41 -4 -67 -6 l-48 -4 0 36 c0 72 4 76 74 76
l64 0 -2 -50z m-56 -112 c0 -21 -3 -24 -9 -14 -5 8 -7 20 -4 28 8 21 13 15 13
-14z m780 -3 c0 -5 -5 -10 -11 -10 -5 0 -7 5 -4 10 3 6 8 10 11 10 2 0 4 -4 4
-10z m-3 -35 c0 -8 -4 -12 -9 -9 -5 3 -6 10 -3 15 9 13 12 11 12 -6z m-419
-29 c7 -4 12 -2 12 6 0 9 3 9 10 -2 5 -8 10 -32 10 -52 0 -33 -4 -39 -27 -45
-39 -10 -46 -10 -65 -1 -10 5 -19 4 -23 -2 -3 -5 -11 -10 -17 -10 -7 0 -8 20
-5 58 4 31 6 57 7 57 3 5 90 -4 98 -9z m419 -11 c0 -8 -4 -12 -9 -9 -5 3 -6
10 -3 15 9 13 12 11 12 -6z m-250 -62 c-3 -10 -5 -4 -5 12 0 17 2 24 5 18 2
-7 2 -21 0 -30z m-327 -3 c0 -5 -7 -10 -16 -10 -8 0 -12 5 -9 10 3 6 10 10 16
10 5 0 9 -4 9 -10z m60 -118 c-3 -55 -5 -65 -8 -34 -2 28 -8 42 -18 42 -8 0
-14 5 -14 10 0 6 -7 10 -15 10 -12 0 -13 4 -3 25 8 19 14 22 20 13 6 -10 8 -9
8 4 0 10 6 15 18 12 15 -4 16 -15 12 -82z m67 26 c-3 -7 -5 -2 -5 12 0 14 2
19 5 13 2 -7 2 -19 0 -25z m203 -2 c0 -3 -4 -8 -10 -11 -5 -3 -10 -1 -10 4 0
6 5 11 10 11 6 0 10 -2 10 -4z m-334 -64 l2 -52 -34 -1 c-19 0 -48 -1 -66 -2
-17 0 -34 5 -36 11 -2 7 6 12 17 12 18 0 21 6 21 39 0 43 6 48 59 46 l36 -2 1
-51z m134 33 c0 -8 -2 -15 -4 -15 -2 0 -6 7 -10 15 -3 8 -1 15 4 15 6 0 10 -7
10 -15z m-342 -102 c0 -30 -3 -41 -7 -29 -7 18 -3 76 5 76 2 0 3 -21 2 -47z
m149 -45 c-3 -8 -6 -5 -6 6 -1 11 2 17 5 13 3 -3 4 -12 1 -19z m-147 -48 c0
-5 -2 -10 -4 -10 -3 0 -8 5 -11 10 -3 6 -1 10 4 10 6 0 11 -4 11 -10z m-330
-259 c0 -6 -4 -12 -8 -15 -5 -3 -9 1 -9 9 0 8 4 15 9 15 4 0 8 -4 8 -9z m228
-26 c-1 -19 -3 -33 -6 -31 -8 8 -8 66 0 66 4 0 7 -16 6 -35z m-228 -15 c0 -5
-5 -10 -11 -10 -5 0 -7 5 -4 10 3 6 8 10 11 10 2 0 4 -4 4 -10z m230 -80 c0
-5 -2 -10 -4 -10 -3 0 -8 5 -11 10 -3 6 -1 10 4 10 6 0 11 -4 11 -10z"/>
<path d="M2550 5231 c0 -6 8 -15 18 -20 15 -9 15 -10 -5 -11 -20 0 -23 -5 -23
-40 0 -36 -3 -41 -36 -55 -20 -8 -38 -15 -39 -15 -2 0 1 16 5 35 7 30 5 35
-13 41 -20 6 -20 7 4 25 32 25 12 24 -25 0 -29 -20 -30 -20 -58 0 -28 20 -39
14 -16 -9 9 -9 8 -12 -4 -12 -13 0 -18 -11 -20 -42 -2 -36 -7 -44 -25 -46 -17
-2 -24 -12 -29 -38 -5 -25 -11 -34 -21 -30 -8 3 -16 6 -18 6 -2 0 0 13 5 30 7
25 5 32 -12 44 -20 14 -20 14 2 26 12 6 19 14 16 17 -3 3 -20 -4 -38 -15 -33
-20 -33 -20 -57 -1 -13 11 -27 17 -30 13 -3 -4 0 -9 7 -11 17 -6 15 -23 -2
-23 -10 0 -16 -14 -18 -42 -3 -36 -7 -43 -28 -48 -14 -3 -25 -12 -26 -20 -2
-33 -5 -38 -23 -43 -16 -4 -18 -11 -14 -49 4 -36 2 -46 -12 -52 -9 -3 -21 -4
-26 0 -5 3 -9 1 -9 -4 0 -6 -9 -8 -20 -5 -30 8 -72 -5 -63 -20 8 -13 6 -119
-3 -149 -5 -16 2 -18 60 -18 l65 0 -1 80 c0 82 6 106 22 80 17 -27 40 -20 40
12 0 38 17 69 33 62 8 -3 12 -16 11 -32 -2 -15 -5 -53 -7 -84 l-4 -58 62 0 62
0 1 81 c1 76 9 110 19 82 3 -7 13 -13 24 -13 15 0 19 7 19 33 0 18 6 41 14 52
7 11 16 45 19 75 4 30 7 55 7 55 0 0 28 0 63 0 l63 1 1 -54 c1 -46 -2 -53 -17
-49 -23 6 -52 -11 -44 -25 4 -7 2 -8 -5 -4 -6 4 -9 12 -5 17 3 5 -8 8 -26 7
-27 -2 -56 -18 -32 -18 5 0 7 -12 6 -27 -2 -16 -5 -54 -7 -85 l-4 -58 69 0
c62 0 68 2 61 18 -5 9 -8 24 -7 32 1 8 2 42 3 75 1 52 3 58 15 43 28 -37 44
-22 52 50 4 37 9 70 10 75 1 4 2 13 3 20 1 10 18 13 63 13 l62 -1 4 47 c3 38
0 47 -15 51 -15 3 -15 5 6 14 18 7 21 12 12 18 -7 4 -16 3 -20 -2 -11 -18 -49
-34 -56 -23 -10 16 -45 32 -45 21z m-301 -277 c1 -35 -3 -51 -11 -52 -7 0 -39
-2 -71 -4 l-59 -4 6 50 c3 28 6 53 6 56 0 3 29 5 64 5 l63 0 2 -51z m161 -39
c0 -8 -2 -15 -4 -15 -2 0 -6 7 -10 15 -3 8 -1 15 4 15 6 0 10 -7 10 -15z
m-220 -55 c0 -5 -5 -10 -11 -10 -5 0 -7 5 -4 10 3 6 8 10 11 10 2 0 4 -4 4
-10z m-220 -71 c0 -11 -4 -18 -10 -14 -5 3 -7 12 -3 20 7 21 13 19 13 -6z
m217 -4 c0 -8 -4 -12 -9 -9 -5 3 -6 10 -3 15 9 13 12 11 12 -6z m-2 -45 c3 -5
1 -10 -4 -10 -6 0 -11 5 -11 10 0 6 2 10 4 10 3 0 8 -4 11 -10z m-215 -61 c0
-5 -4 -9 -8 -9 -5 0 -9 7 -9 15 0 8 4 12 9 9 4 -3 8 -9 8 -15z"/>
<path d="M1910 5071 c0 -6 8 -15 18 -20 15 -9 15 -10 -5 -11 -19 0 -22 -6 -25
-42 -2 -36 -7 -44 -25 -46 -13 -2 -24 -8 -24 -13 -1 -5 -2 -15 -3 -21 -1 -12
-10 -14 -34 -9 -4 0 -6 19 -4 41 3 34 1 40 -14 40 -16 0 -15 3 6 20 32 25 14
26 -24 1 -29 -19 -30 -19 -54 0 -14 11 -28 16 -31 13 -3 -4 0 -9 7 -11 17 -6
15 -23 -2 -23 -10 0 -16 -14 -18 -42 -2 -35 -7 -44 -25 -46 -23 -3 -28 -17
-39 -98 -5 -45 -4 -51 12 -51 11 0 21 3 24 8 3 4 12 9 20 11 11 2 14 -10 12
-67 -2 -38 -5 -78 -8 -87 -5 -16 3 -18 66 -18 51 0 69 3 64 12 -4 6 -6 43 -5
82 2 69 9 94 18 69 3 -7 13 -13 24 -13 13 0 19 7 19 23 0 12 6 32 14 43 8 11
16 44 18 74 l4 55 40 0 c21 0 44 -3 49 -6 6 -4 19 -1 29 7 11 8 17 14 14 14
-4 0 -3 13 2 30 7 25 5 32 -12 44 -20 14 -20 14 2 26 12 6 19 14 16 17 -3 3
-21 -4 -40 -16 -21 -14 -37 -18 -41 -11 -10 16 -45 32 -45 21z m-104 -233 c0
-50 -1 -56 -16 -48 -10 5 -20 7 -23 3 -6 -5 -45 -7 -86 -4 -10 1 -12 13 -7 54
3 28 6 52 6 52 0 0 28 0 63 0 l63 0 0 -57z m-58 -93 c-3 -3 -9 2 -12 12 -6 14
-5 15 5 6 7 -7 10 -15 7 -18z m2 -45 c0 -5 -5 -10 -11 -10 -5 0 -7 5 -4 10 3
6 8 10 11 10 2 0 4 -4 4 -10z m-9 -53 c-10 -9 -11 -8 -5 6 3 10 9 15 12 12 3
-3 0 -11 -7 -18z m9 -21 c0 -3 -4 -8 -10 -11 -5 -3 -10 -1 -10 4 0 6 5 11 10
11 6 0 10 -2 10 -4z"/>
<path d="M4260 4882 c0 -4 5 -13 12 -20 9 -9 8 -12 -5 -12 -13 0 -17 -9 -17
-40 0 -34 -4 -42 -25 -50 -27 -10 -35 -31 -38 -100 -1 -34 2 -45 13 -45 27 -1
43 26 45 73 1 26 2 52 3 57 1 6 30 10 65 10 l63 0 1 -52 c0 -29 -3 -50 -8 -47
-5 3 -9 0 -9 -7 0 -10 -3 -10 -12 -1 -9 9 -16 8 -32 -6 -11 -9 -16 -11 -12 -4
5 8 -1 12 -19 12 -31 0 -33 -5 -37 -107 l-3 -83 51 0 c50 0 51 0 46 -27 -7
-39 -22 -45 -50 -22 -28 21 -42 18 -22 -6 10 -12 10 -15 -4 -15 -12 0 -16 -10
-16 -40 0 -31 -5 -42 -22 -51 -13 -7 -25 -13 -28 -13 -5 -1 -6 -6 -16 -86 -7
-52 -6 -54 11 -40 15 12 17 12 10 1 -6 -11 -4 -13 8 -8 9 3 19 2 22 -3 4 -6
-1 -10 -9 -10 -12 0 -16 -10 -16 -41 0 -35 -3 -41 -29 -50 -16 -6 -28 -15 -27
-22 0 -7 -3 -38 -7 -70 -6 -41 -5 -62 3 -73 10 -11 9 -14 -4 -14 -12 0 -16
-10 -16 -41 0 -35 -3 -41 -29 -50 -18 -6 -29 -17 -29 -27 1 -9 -2 -34 -6 -55
-5 -28 -11 -37 -22 -33 -8 3 -14 1 -14 -4 0 -6 5 -10 10 -10 6 0 10 -4 10 -10
0 -5 -6 -10 -14 -10 -10 0 -16 -14 -18 -42 -2 -35 -7 -44 -25 -46 -22 -3 -24
-9 -38 -92 -4 -24 -16 -42 -37 -57 l-31 -22 -29 20 c-28 20 -39 14 -16 -9 9
-9 8 -12 -4 -12 -13 0 -18 -11 -20 -42 -2 -35 -7 -44 -25 -46 -15 -2 -23 -12
-27 -33 -3 -16 -9 -43 -12 -60 -4 -22 -10 -29 -21 -25 -8 3 -18 6 -21 6 -4 0
4 9 18 20 16 12 20 20 11 20 -8 0 -25 -10 -37 -21 l-23 -21 -30 22 c-30 21
-43 16 -19 -8 9 -9 8 -12 -5 -12 -13 0 -17 -9 -17 -39 0 -40 -11 -55 -40 -56
-15 0 -17 -4 -19 -55 0 -16 -5 -30 -9 -30 -4 0 -6 16 -4 35 3 26 0 36 -13 41
-16 6 -15 9 6 25 15 12 19 19 10 19 -8 0 -25 -10 -37 -21 l-23 -21 -30 22
c-30 21 -43 16 -19 -8 9 -9 8 -12 -5 -12 -13 0 -17 -9 -17 -39 0 -40 -11 -55
-40 -56 -8 0 -16 -10 -16 -22 -2 -40 -4 -43 -19 -43 -15 0 -19 -10 -15 -44 3
-33 -10 -68 -24 -63 -8 3 -16 3 -19 0 -3 -3 -27 -6 -52 -7 l-47 -2 6 56 c3 30
5 55 6 56 1 4 90 -5 97 -9 16 -10 29 13 32 56 2 27 -2 39 -14 44 -15 5 -15 8
6 24 20 15 21 19 7 19 -10 0 -18 -4 -18 -8 0 -5 -11 -14 -24 -20 -19 -9 -28
-7 -44 8 -22 21 -39 15 -21 -7 9 -10 8 -13 -4 -13 -11 0 -17 -12 -19 -42 -2
-36 -7 -44 -25 -46 -13 -2 -23 -6 -24 -10 -6 -60 -16 -83 -33 -76 -11 4 -12
13 -6 35 7 24 5 32 -11 42 -19 12 -19 12 3 29 15 12 18 18 9 18 -8 0 -25 -10
-37 -21 l-23 -21 -30 22 c-30 21 -43 16 -19 -8 9 -9 8 -12 -5 -12 -13 0 -17
-9 -17 -41 0 -36 -3 -41 -31 -51 -19 -7 -28 -15 -25 -24 3 -8 0 -14 -7 -14 -9
0 -12 11 -9 35 3 26 0 36 -13 41 -16 6 -15 9 6 25 15 12 19 19 10 19 -8 0 -25
-10 -37 -21 l-23 -21 -30 22 c-17 12 -31 17 -31 11 0 -5 8 -15 18 -20 15 -9
15 -10 -5 -11 -20 0 -23 -5 -23 -36 0 -38 -17 -63 -38 -56 -6 2 -13 -1 -13 -7
-1 -6 -3 -15 -4 -21 -1 -5 -3 -15 -4 -21 -1 -8 -5 -8 -15 0 -21 17 -32 -6 -30
-61 1 -27 -2 -46 -6 -43 -5 3 -11 -1 -13 -7 -4 -10 -6 -10 -6 0 -1 7 -6 10
-12 7 -5 -4 -30 -8 -55 -9 l-44 -2 0 35 c0 69 6 76 58 74 71 -2 78 2 80 47 3
35 0 41 -24 50 -15 6 -29 8 -32 6 -2 -3 -18 4 -33 15 -29 20 -40 14 -17 -9 9
-9 8 -12 -5 -12 -13 0 -17 -9 -17 -41 0 -35 -3 -41 -29 -50 -19 -7 -28 -17
-28 -32 0 -12 -2 -31 -3 -42 -2 -17 -3 -16 -9 5 -4 14 -11 25 -16 26 -33 3
-43 16 -35 45 7 24 5 32 -11 42 -19 12 -19 12 3 29 15 12 18 18 9 18 -8 0 -25
-10 -37 -21 l-23 -21 -27 21 c-15 12 -30 19 -33 15 -3 -3 3 -12 13 -20 19 -14
19 -14 -2 -14 -18 0 -22 -6 -22 -34 0 -49 -8 -65 -31 -59 -18 5 -22 -2 -21
-32 0 -5 -18 -20 -42 -31 -42 -21 -43 -21 -69 -2 -27 20 -38 13 -15 -10 9 -9
8 -12 -5 -12 -13 0 -17 -9 -17 -40 0 -28 -5 -42 -19 -49 -10 -6 -21 -8 -24 -5
-6 6 -14 -28 -22 -97 -5 -39 -4 -46 11 -46 30 0 49 29 48 72 -1 68 1 70 70 70
l62 0 1 -53 c1 -51 -9 -73 -22 -52 -5 8 -15 6 -32 -5 -14 -10 -22 -12 -18 -5
5 8 -1 11 -21 8 -28 -3 -29 -5 -32 -66 -2 -34 -5 -62 -8 -62 -3 0 -19 9 -35
21 -29 20 -40 14 -17 -9 8 -8 8 -12 1 -12 -6 0 -13 7 -17 15 -3 8 -9 14 -13
14 -4 -1 -15 1 -25 5 -12 6 -14 14 -9 34 10 34 4 52 -17 52 -13 0 -11 5 8 20
14 11 20 20 14 20 -6 0 -23 -9 -38 -21 -23 -18 -29 -19 -44 -7 -9 7 -20 17
-23 22 -4 4 -10 3 -13 -3 -4 -6 -2 -11 3 -11 6 0 11 -4 11 -10 0 -5 -7 -10
-15 -10 -11 0 -15 -11 -15 -39 0 -39 -11 -55 -39 -56 -15 0 -15 -3 -27 -95 -7
-52 -6 -54 11 -40 11 9 16 10 11 3 -4 -7 -2 -13 3 -13 6 0 11 7 11 16 0 8 5
12 10 9 6 -4 10 8 10 28 0 19 3 48 6 64 6 28 7 29 68 28 l63 0 2 -43 c2 -47
-18 -79 -38 -59 -7 7 -11 8 -11 0 0 -6 -15 -9 -40 -6 l-39 5 0 -79 c0 -43 -3
-86 -6 -96 -6 -15 0 -17 59 -17 60 0 66 2 66 21 0 11 5 17 10 14 5 -3 10 1 10
9 0 9 5 15 12 13 8 -1 11 9 10 28 -2 17 3 44 10 60 12 28 17 30 69 31 l56 1 2
-48 c1 -52 -1 -54 -68 -58 -25 -1 -48 -4 -52 -6 -3 -3 -7 -37 -8 -77 -1 -40
-4 -81 -7 -90 -5 -16 2 -18 58 -18 l64 0 2 82 c1 45 5 84 8 87 13 13 20 -24
13 -62 -14 -70 -11 -86 11 -84 18 1 24 10 21 30 -1 4 7 2 17 -4 12 -7 17 -21
15 -38 -1 -14 -4 -52 -6 -83 l-4 -58 62 0 62 0 0 81 c1 78 7 104 21 83 4 -6
15 -14 26 -17 14 -5 17 -13 12 -32 -6 -25 -6 -25 59 -25 57 0 66 2 64 18 -1 9
-1 51 0 92 1 61 4 72 14 59 7 -8 20 -18 30 -22 17 -6 18 -1 17 46 -2 70 -1 77
8 77 8 0 8 -39 -2 -132 -2 -21 0 -38 5 -38 5 0 9 -8 9 -18 0 -23 30 -25 46 -4
9 12 13 13 19 2 9 -14 8 -123 -1 -152 -5 -16 2 -18 50 -18 55 0 56 0 56 -29 0
-24 4 -29 20 -28 11 1 20 8 20 15 0 9 6 12 16 8 9 -3 17 -6 18 -6 3 0 -3 -95
-8 -137 l-5 -33 65 0 c60 0 64 -1 64 -23 0 -16 6 -23 20 -24 11 -1 20 2 20 8
0 5 8 9 18 9 16 0 18 -7 15 -52 -2 -29 -5 -68 -7 -86 -5 -32 -4 -32 38 -32 42
0 43 -1 42 -31 -1 -23 4 -33 17 -35 9 -1 17 4 17 12 0 17 16 19 25 3 8 -13 8
-124 0 -150 -6 -17 0 -19 65 -19 58 0 70 3 63 14 -11 20 -4 156 9 156 6 0 7
-22 3 -59 -6 -56 -5 -60 14 -58 11 1 23 7 25 14 3 7 11 10 18 8 13 -5 15 -86
4 -147 l-5 -28 70 0 c46 0 68 4 64 10 -8 14 -10 158 -2 166 14 14 27 -39 21
-85 -6 -47 -5 -50 15 -48 11 1 21 7 21 14 0 7 5 12 11 10 7 -1 12 18 13 48 2
28 4 55 4 61 2 11 82 12 101 0 6 -4 11 -2 11 4 0 6 4 9 8 6 4 -2 9 -22 10 -44
3 -50 -14 -65 -74 -64 -27 1 -46 -4 -49 -11 -2 -7 -5 -49 -7 -94 l-3 -83 62 0
62 0 0 68 c0 97 0 102 11 102 5 0 8 -21 7 -46 -2 -38 1 -47 16 -49 9 -2 17 3
17 11 0 8 5 13 11 11 7 -1 12 18 13 48 2 28 4 55 4 60 1 6 30 10 65 10 61 0
62 0 64 -29 1 -16 -2 -36 -8 -43 -9 -10 -8 -13 1 -13 10 0 10 -3 0 -15 -8 -10
-17 -12 -22 -7 -13 13 -49 3 -41 -12 4 -6 -1 -5 -10 3 -32 26 -44 7 -46 -71
-1 -40 -4 -81 -7 -90 -5 -16 3 -18 66 -18 53 0 69 3 64 12 -8 13 -7 158 2 167
2 3 7 -4 10 -16 9 -33 44 -18 44 18 0 26 3 29 34 29 l34 0 0 86 c0 85 8 117
18 77 10 -36 44 -18 44 23 0 31 3 34 29 34 l29 0 0 81 c0 84 7 106 23 77 18
-33 39 -9 39 46 0 36 3 47 10 36 8 -13 10 -12 10 3 0 14 4 16 17 9 13 -8 16
-23 14 -73 -1 -35 -4 -72 -7 -81 -5 -16 2 -18 59 -18 l63 0 2 82 c2 77 9 108
19 81 3 -7 13 -13 24 -13 18 0 20 6 17 72 -2 40 -5 71 -8 69 -3 -2 -15 1 -27
7 -18 10 -20 17 -13 41 9 31 3 45 -20 53 -11 4 -9 8 9 15 17 7 21 12 12 17 -7
5 -22 -1 -36 -14 l-24 -22 -27 21 c-15 12 -30 19 -33 15 -3 -3 3 -12 13 -20
19 -14 19 -14 -2 -14 -19 0 -22 -6 -22 -40 0 -29 -5 -42 -20 -50 -11 -6 -20
-7 -20 -3 -1 22 -20 -26 -20 -49 0 -20 -6 -27 -22 -30 -21 -3 -23 -8 -20 -55
4 -50 3 -51 -22 -49 -14 2 -26 0 -26 -5 0 -4 -13 -5 -30 -3 -16 3 -40 0 -52
-6 -21 -11 -21 -10 2 9 20 17 22 21 8 21 -19 0 -21 11 -12 57 6 29 8 30 52 27
66 -4 77 1 80 38 2 18 5 34 8 37 2 3 -6 11 -18 17 l-23 13 24 9 c18 6 21 11
12 17 -7 4 -16 3 -20 -2 -3 -6 -15 -15 -26 -21 -16 -8 -25 -6 -44 9 -13 11
-27 17 -30 13 -3 -3 3 -12 13 -20 19 -14 19 -14 -2 -14 -17 0 -21 -7 -24 -42
-2 -36 -7 -44 -25 -46 -13 -2 -24 -11 -25 -20 0 -9 -2 -21 -3 -27 -2 -5 -3
-17 -4 -25 -1 -8 -6 -22 -11 -30 -8 -12 -11 -13 -19 -1 -6 9 -11 10 -15 2 -4
-6 -2 -11 3 -11 6 0 11 -4 11 -10 0 -5 -7 -10 -15 -10 -11 0 -15 -11 -15 -39
0 -33 -4 -42 -27 -53 -14 -7 -28 -22 -29 -33 -3 -19 -12 -67 -13 -73 -1 -1
-12 5 -26 14 -14 9 -25 12 -25 6 0 -6 8 -16 18 -21 15 -9 15 -10 -5 -11 -20 0
-23 -5 -23 -39 0 -52 -18 -63 -22 -14 -2 21 -7 38 -13 39 -30 2 -44 16 -36 37
10 31 3 57 -17 57 -15 1 -15 3 2 15 11 8 16 18 12 22 -4 4 -10 3 -14 -3 -18
-28 -46 -32 -74 -12 -28 19 -39 13 -16 -10 9 -9 8 -12 -4 -12 -13 0 -18 -11
-20 -42 -5 -63 -26 -60 -30 4 -2 29 -7 53 -13 54 -33 3 -43 16 -35 45 7 24 5
32 -11 42 -19 12 -19 12 3 29 20 15 20 18 6 18 -10 0 -18 -4 -18 -8 0 -5 -10
-14 -22 -19 -18 -8 -29 -6 -50 9 -28 19 -39 13 -16 -10 9 -9 8 -12 -5 -12 -13
0 -17 -9 -17 -39 0 -58 -18 -60 -22 -4 -2 32 -7 47 -15 46 -7 -2 -13 2 -13 8
0 8 -4 8 -13 1 -8 -7 -12 -30 -11 -62 2 -29 -1 -48 -7 -45 -5 4 -9 1 -9 -6 0
-10 -3 -10 -11 -2 -16 16 -39 5 -32 -15 4 -10 -2 -7 -16 7 -17 17 -26 20 -34
12 -23 -23 -29 -10 -24 47 4 31 6 57 7 58 0 0 21 -1 48 -2 72 -4 78 0 81 51 2
37 -1 45 -16 45 -15 0 -14 4 7 20 20 16 22 20 8 20 -10 0 -18 -4 -18 -8 0 -5
-11 -14 -24 -20 -32 -14 -46 1 -46 53 0 47 -7 60 -37 69 -18 6 -20 11 -13 36
7 25 5 32 -12 44 -20 14 -20 14 2 26 12 6 19 14 16 17 -3 3 -20 -4 -38 -15
-33 -20 -33 -20 -57 -1 -13 11 -27 17 -30 13 -3 -3 3 -12 13 -20 19 -14 19
-14 -2 -14 -17 0 -21 -7 -24 -42 -2 -36 -7 -44 -25 -46 -13 -2 -24 -11 -25
-20 0 -9 -2 -21 -3 -27 -2 -5 -3 -19 -4 -29 0 -11 -4 -16 -8 -13 -7 7 -5 149
3 156 2 2 12 -3 22 -12 10 -10 22 -17 26 -17 4 0 6 34 4 77 -3 70 -5 76 -25
79 -25 4 -26 0 -23 -58 2 -42 -8 -47 -93 -51 -45 -2 -47 -1 -47 24 0 15 3 40
6 56 5 28 9 29 48 28 24 -1 48 -5 54 -9 12 -7 25 9 29 36 2 10 3 21 4 25 4 26
-3 43 -18 43 -15 0 -13 4 7 20 20 15 21 20 8 20 -9 0 -20 -5 -23 -10 -14 -22
-20 1 -19 69 2 80 6 90 29 67 11 -11 14 -27 11 -56 l-5 -40 64 0 64 0 -2 85
c-1 62 1 85 11 85 6 0 12 -6 12 -14 0 -9 7 -12 20 -9 16 4 20 14 20 44 0 25 5
39 13 39 13 0 14 -78 2 -142 l-4 -28 65 0 65 0 -2 77 c-1 112 -2 110 22 85 27
-30 39 -20 39 34 0 30 4 44 13 44 13 0 14 -51 3 -138 l-5 -32 70 0 c53 0 68 3
63 12 -5 7 -7 44 -6 82 2 67 10 95 19 69 3 -7 13 -13 24 -13 15 0 19 7 19 35
0 23 5 35 14 35 8 0 13 -7 11 -17 -2 -10 -6 -48 -8 -85 l-4 -68 69 0 c51 0 67
3 62 12 -8 13 -7 148 0 156 3 2 12 -3 21 -12 22 -21 35 -12 35 25 0 23 4 30
17 27 14 -2 16 -14 14 -68 -1 -36 -4 -73 -7 -82 -5 -16 2 -18 59 -18 l64 0 0
80 c1 75 10 112 20 83 3 -7 12 -13 20 -13 12 0 14 -7 10 -30 l-6 -30 70 0 c53
0 68 3 63 12 -5 7 -8 23 -7 35 1 13 2 49 2 81 1 47 4 54 14 41 7 -8 20 -18 30
-22 15 -6 17 0 17 48 0 52 5 61 33 56 4 0 7 6 7 14 0 8 6 14 13 13 7 -2 11 5
9 16 -2 11 -1 38 2 61 l7 40 63 0 64 0 -1 -51 0 -51 -55 -2 c-31 -1 -59 -4
-63 -6 -3 -3 -7 -37 -8 -77 -1 -40 -4 -81 -7 -90 -5 -16 3 -18 67 -18 55 0 69
3 63 13 -5 6 -7 48 -4 92 5 80 16 88 29 22 6 -30 41 -48 41 -21 0 8 6 11 16 7
13 -5 15 -20 12 -89 l-3 -84 62 0 62 0 -1 73 c0 94 0 97 12 97 6 0 10 -13 10
-28 0 -21 5 -28 20 -29 11 -1 20 2 20 8 0 5 8 9 19 9 19 0 20 -3 7 -132 l-4
-38 65 0 64 0 -3 -32 c-2 -25 -8 -34 -25 -36 -13 -2 -24 -11 -25 -20 0 -9 -2
-21 -3 -27 -2 -5 -4 -14 -5 -20 -1 -5 -3 -14 -5 -20 -1 -5 -3 -20 -3 -32 -2
-16 -7 -20 -24 -17 -13 2 -17 2 -10 -2 17 -8 15 -24 -2 -24 -10 0 -16 -14 -18
-43 -2 -35 -7 -43 -25 -45 -13 -2 -23 -6 -24 -10 -7 -71 -30 -90 -70 -61 -29
20 -40 14 -17 -9 9 -9 8 -12 -4 -12 -12 0 -17 -12 -20 -45 -2 -25 1 -46 7 -47
5 -1 35 -2 65 -3 l55 -1 1 -54 1 -55 -63 1 -62 1 -1 -78 c-1 -43 -4 -85 -7
-93 -5 -14 4 -16 59 -16 l65 0 0 81 c1 85 7 106 23 77 11 -19 39 -13 39 8 0
10 15 14 56 14 43 0 54 3 48 13 -5 6 -7 48 -4 92 4 53 8 74 14 62 4 -9 17 -17
27 -17 16 0 19 8 19 50 0 49 1 50 31 50 23 0 30 4 28 17 -1 10 -1 51 0 92 l1
75 21 -22 c11 -12 24 -20 30 -17 5 4 9 40 9 80 0 62 -2 73 -15 69 -8 -4 -15
-1 -15 5 0 6 -7 11 -15 11 -9 0 -12 6 -9 15 4 11 21 15 56 15 34 0 47 3 42 11
-9 15 -9 157 0 166 4 4 9 -2 12 -14 4 -15 11 -19 26 -15 18 4 19 12 16 78 l-3
74 46 0 47 0 1 82 c1 45 3 84 6 86 2 2 12 -3 21 -12 10 -11 20 -14 26 -8 12
12 6 147 -7 148 -33 3 -43 16 -35 49 7 29 5 35 -12 41 -35 11 -9 17 63 15 l70
-2 -2 80 c-1 45 1 84 4 87 3 4 14 -1 23 -10 10 -11 20 -14 26 -8 12 12 6 147
-7 147 -24 1 -35 19 -35 56 0 30 -4 39 -17 39 -15 0 -13 4 7 20 33 26 16 25
-26 -1 -40 -24 -42 -21 -46 66 -2 33 -7 60 -13 61 -33 3 -43 16 -35 49 7 30 5
35 -13 41 -20 6 -20 7 4 25 32 25 12 24 -26 -1 -27 -18 -31 -18 -47 -3 -11 9
-18 30 -18 50 0 29 -5 36 -29 44 -26 9 -28 13 -21 40 7 23 5 31 -12 43 -20 14
-20 14 2 26 12 6 19 14 16 17 -3 3 -20 -4 -38 -15 -33 -20 -33 -20 -57 -1 -18
14 -19 19 -7 19 14 0 16 11 14 73 -2 39 -7 72 -13 73 -33 3 -43 16 -35 45 7
24 5 32 -11 42 -19 12 -19 12 3 29 20 15 20 18 6 18 -10 0 -18 -4 -18 -8 0 -5
-11 -14 -24 -20 -19 -9 -28 -7 -44 9 -12 11 -23 15 -27 9 -3 -6 -1 -10 4 -10
6 0 11 -4 11 -10 0 -5 -7 -10 -14 -10 -11 0 -16 15 -18 53 -3 52 -6 55 -46 48
-4 0 -7 -26 -6 -56 1 -49 -1 -53 -16 -45 -10 5 -20 7 -22 4 -3 -3 -26 -6 -52
-8 -44 -2 -46 -1 -46 24 0 15 3 41 6 57 6 28 8 30 52 28 81 -4 88 0 84 50 -3
34 -8 45 -21 45 -12 0 -10 5 9 20 20 16 22 20 8 20 -10 0 -18 -4 -18 -8 0 -5
-11 -14 -24 -20 -19 -9 -28 -7 -44 8 -22 21 -39 15 -21 -7 9 -10 8 -13 -5 -13
-12 0 -16 -10 -16 -42 0 -23 -3 -38 -7 -35 -3 4 -6 23 -5 42 0 19 1 52 1 72 1
29 4 34 13 25 7 -7 20 -12 30 -12 17 0 19 8 16 73 -2 39 -7 72 -13 73 -28 2
-44 17 -36 32 11 21 -4 62 -21 62 -7 0 -2 9 12 20 16 12 20 20 11 20 -8 0 -25
-10 -38 -22 -22 -21 -23 -21 -43 -3 -17 15 -20 31 -20 90 0 71 -1 73 -29 85
-26 10 -28 15 -21 39 10 37 1 50 -37 54 -17 2 -43 11 -57 21 -14 9 -26 13 -26
8z m149 -272 c7 0 9 -4 6 -10 -3 -5 -1 -10 4 -10 6 0 11 -4 11 -10 0 -5 -6
-10 -14 -10 -10 0 -16 -14 -18 -42 -2 -29 -8 -43 -17 -43 -14 0 -15 9 -11 123
1 33 2 35 14 20 7 -10 19 -18 25 -18z m-92 -27 c-3 -10 -5 -4 -5 12 0 17 2 24
5 18 2 -7 2 -21 0 -30z m0 -42 c0 -11 -5 -18 -9 -15 -4 3 -5 11 -1 19 7 21 12
19 10 -4z m3 -55 c0 -3 -4 -8 -10 -11 -5 -3 -10 -1 -10 4 0 6 5 11 10 11 6 0
10 -2 10 -4z m207 -63 c0 -29 -3 -50 -8 -47 -5 3 -9 2 -9 -3 0 -4 -27 -8 -61
-8 l-60 0 5 55 c3 30 5 55 5 55 1 0 29 0 64 0 l63 0 1 -52z m-126 -86 c-1 -4
-1 -14 -1 -22 0 -8 -6 -12 -14 -9 -15 6 -10 47 6 42 5 -2 9 -7 9 -11z m-52
-51 c6 -4 11 -2 11 3 0 6 3 11 8 11 4 0 8 -24 10 -53 3 -58 6 -55 -65 -57 -51
-1 -75 -9 -67 -22 4 -6 2 -8 -4 -5 -5 4 -8 15 -6 25 4 14 7 36 13 98 1 12 80
12 100 0z m118 -15 c0 -11 -5 -18 -9 -15 -4 3 -5 11 -1 19 7 21 12 19 10 -4z
m-5 -73 c-7 -7 -12 -8 -12 -2 0 6 3 14 7 17 3 4 9 5 12 2 2 -3 -1 -11 -7 -17z
m9 -48 c-9 -70 -6 -103 12 -106 9 -1 17 4 17 12 0 16 2 16 22 9 9 -4 13 -17
12 -33 -2 -15 -5 -53 -7 -84 l-4 -58 59 0 c54 0 58 -2 58 -23 0 -16 6 -23 20
-24 12 -1 20 4 20 13 0 8 5 12 10 9 6 -4 10 8 10 28 0 19 3 47 6 63 5 28 7 29
68 29 l62 0 0 -55 0 -55 -61 2 -61 3 -2 -77 c-1 -42 -4 -85 -7 -94 -5 -15 1
-18 37 -21 37 -3 42 -6 39 -23 -10 -55 -6 -98 11 -100 9 -2 19 3 22 11 3 7 11
11 19 8 14 -5 14 -28 3 -136 l-4 -37 44 -3 44 -3 -39 -22 -38 -22 -22 20 c-12
12 -25 18 -29 14 -4 -4 2 -13 12 -21 19 -14 19 -14 -2 -14 -17 0 -21 -7 -24
-42 -2 -30 -8 -42 -20 -44 -10 -1 -18 2 -18 8 0 5 -6 8 -12 6 -8 -3 -13 -23
-14 -49 0 -24 -1 -50 -2 -56 -1 -9 -21 -13 -61 -13 l-59 0 -1 -79 c0 -43 -4
-86 -7 -95 -5 -14 4 -16 65 -16 59 0 71 3 64 14 -4 8 -6 42 -5 76 3 53 6 60
22 55 22 -7 51 20 43 40 -3 9 -2 35 1 58 6 42 7 43 44 42 20 0 42 -4 49 -8 6
-4 14 -3 18 3 14 22 22 8 24 -41 2 -61 -4 -72 -30 -59 -10 6 -19 7 -19 3 0 -4
-17 -8 -37 -8 l-38 0 -2 -55 c-1 -30 -4 -72 -7 -92 l-4 -38 63 0 64 0 -1 80
c0 82 6 106 22 80 5 -7 16 -15 25 -16 14 -2 15 8 13 74 -2 42 -7 77 -13 78
-32 3 -44 16 -35 40 8 19 5 29 -10 44 -19 19 -19 20 0 30 16 8 20 8 20 -4 0
-17 32 -16 43 1 4 7 13 10 21 7 13 -5 13 -30 2 -136 l-4 -38 39 0 39 0 -7 -46
c-5 -41 -4 -45 13 -42 10 2 25 9 32 16 17 15 31 7 27 -16 -2 -9 -4 -39 -4 -67
-1 -44 -5 -53 -33 -72 -31 -22 -31 -22 -56 -2 -14 10 -28 17 -31 13 -3 -3 3
-12 13 -20 19 -14 19 -14 -2 -14 -19 0 -22 -5 -22 -41 0 -35 -4 -41 -28 -50
-15 -5 -28 -17 -28 -27 -1 -9 -4 -38 -9 -64 -6 -41 -5 -49 10 -54 11 -5 21 -1
27 9 4 9 14 14 21 11 9 -3 12 -24 9 -72 -4 -76 -7 -92 -21 -92 -6 0 -6 12 -1
30 7 25 5 33 -11 43 -19 12 -19 12 3 29 20 15 20 18 6 18 -10 0 -18 -4 -18 -8
0 -5 -10 -13 -23 -19 -18 -8 -28 -7 -46 8 -13 11 -27 17 -30 13 -3 -4 0 -9 7
-11 17 -6 15 -23 -3 -23 -11 0 -15 -11 -15 -40 0 -43 -24 -66 -41 -39 -4 8
-12 14 -16 15 -29 3 -39 17 -35 46 3 23 0 35 -14 45 -18 13 -18 14 4 19 12 4
22 10 22 15 0 15 -20 10 -47 -11 -23 -18 -28 -19 -43 -5 -9 8 -23 15 -31 14
-10 0 -10 -2 -1 -6 17 -7 15 -23 -2 -23 -10 0 -16 -13 -18 -42 -2 -23 -9 -43
-15 -46 -7 -2 -13 3 -13 11 0 8 -13 20 -29 27 -25 10 -28 15 -22 38 10 34 4
52 -17 52 -13 0 -11 5 8 20 32 25 20 26 -21 1 -32 -20 -33 -20 -61 0 -28 20
-39 14 -16 -9 9 -9 8 -12 -4 -12 -13 0 -18 -11 -20 -42 -2 -31 -8 -44 -20 -46
-12 -2 -17 5 -20 25 -2 15 -7 28 -13 29 -30 2 -44 16 -36 37 10 31 3 57 -17
57 -13 0 -11 5 8 20 32 25 14 26 -24 1 -29 -20 -30 -20 -58 0 -28 20 -39 14
-16 -9 9 -9 8 -12 -4 -12 -13 0 -18 -11 -20 -42 -2 -35 -7 -44 -24 -46 -22 -3
-33 -27 -34 -67 -1 -37 -14 -47 -42 -34 -23 10 -25 15 -18 40 7 24 5 32 -11
42 -19 12 -19 12 3 29 14 10 17 18 10 18 -8 0 -25 -9 -39 -20 -23 -18 -28 -19
-43 -5 -9 8 -23 15 -31 14 -10 0 -10 -2 -1 -6 17 -7 15 -23 -3 -23 -11 0 -15
-11 -15 -39 0 -41 -11 -51 -53 -51 -21 1 -22 1 -3 15 11 8 16 18 13 22 -4 3
-18 -4 -31 -16 l-25 -23 -30 22 c-30 21 -43 16 -19 -8 9 -9 8 -12 -5 -12 -13
0 -17 -9 -17 -40 0 -28 -5 -42 -19 -49 -10 -6 -21 -7 -25 -4 -5 6 -10 -12 -7
-29 1 -10 -3 -10 -22 -2 -12 4 -13 12 -7 35 7 23 5 31 -12 43 -20 14 -20 14 2
26 12 6 19 14 17 17 -6 6 -50 -16 -59 -30 -3 -6 -17 -1 -34 12 -15 12 -30 18
-33 15 -3 -4 0 -9 7 -11 18 -7 15 -23 -5 -23 -14 0 -18 -9 -18 -42 0 -36 -3
-43 -25 -48 -16 -4 -24 -12 -22 -23 2 -9 -3 -17 -10 -17 -10 0 -12 12 -10 40
3 34 1 40 -14 40 -16 0 -15 3 6 20 14 11 19 20 12 20 -8 0 -25 -9 -39 -20 -25
-20 -25 -20 -51 0 -14 11 -28 17 -31 14 -3 -4 0 -9 7 -11 17 -6 15 -23 -2 -23
-10 0 -16 -14 -18 -42 -2 -35 -7 -44 -25 -46 -15 -2 -24 -13 -28 -33 -10 -43
-21 -35 -17 11 3 34 1 40 -14 40 -16 0 -15 3 6 20 14 11 20 20 14 20 -6 0 -23
-9 -37 -20 -22 -18 -29 -19 -47 -8 -11 7 -20 16 -20 21 0 4 -4 5 -10 2 -5 -3
-10 -11 -10 -16 0 -6 5 -7 10 -4 6 3 10 1 10 -4 0 -6 -6 -11 -14 -11 -10 0
-16 -14 -18 -42 -2 -36 -7 -44 -25 -46 -15 -2 -25 -13 -29 -30 -4 -15 -9 -31
-12 -36 -3 -5 -5 -31 -5 -58 1 -46 0 -48 -26 -47 -14 1 -30 1 -36 -1 -26 -7
-45 1 -45 20 0 10 -7 23 -16 28 -11 6 -13 16 -9 34 6 24 10 25 53 22 70 -5 78
0 81 51 2 37 -1 45 -16 45 -15 0 -14 4 7 20 14 11 20 20 14 20 -6 0 -23 -9
-38 -21 -23 -18 -29 -19 -44 -7 -9 7 -20 17 -23 22 -4 4 -10 3 -13 -3 -4 -6
-2 -11 3 -11 6 0 11 -4 11 -10 0 -5 -7 -10 -15 -10 -10 0 -15 -10 -15 -32 0
-51 -13 -65 -38 -40 l-21 21 22 15 c19 13 19 15 5 15 -10 1 -18 -3 -18 -7 0
-5 -10 -14 -22 -19 -18 -8 -29 -6 -50 9 -28 19 -39 13 -16 -10 9 -9 8 -12 -5
-12 -12 0 -17 -9 -18 -30 -3 -59 -4 -60 -55 -63 -39 -2 -39 -2 -36 -39 3 -36
-11 -53 -21 -25 -2 6 -8 9 -12 5 -4 -4 -3 -14 4 -22 9 -11 6 -15 -16 -21 -16
-4 -43 -8 -61 -9 l-34 -2 6 55 c3 31 5 56 6 57 0 0 26 0 58 0 31 -1 58 2 60 6
19 45 20 69 0 82 -20 14 -20 14 2 26 12 6 19 14 16 17 -3 3 -20 -4 -39 -16
-34 -20 -34 -20 -55 -1 -11 11 -24 16 -27 11 -3 -6 3 -14 12 -20 16 -9 15 -10
-7 -11 -24 0 -25 -3 -22 -40 4 -36 2 -40 -29 -53 -46 -19 -69 -10 -38 14 32
25 12 24 -25 0 -29 -20 -30 -20 -58 0 -28 20 -39 14 -16 -9 9 -9 8 -12 -5 -12
-13 0 -17 -9 -17 -39 0 -44 -14 -60 -49 -55 -34 6 -39 14 -13 21 25 6 30 23 7
23 -8 0 -15 -4 -15 -8 0 -5 -10 -14 -22 -19 -18 -8 -29 -6 -50 9 -28 19 -39
13 -16 -10 9 -9 8 -12 -5 -12 -13 0 -17 -9 -17 -39 0 -67 -19 -57 -22 11 -2
35 -7 63 -13 64 -21 2 -45 17 -39 25 3 5 23 9 45 9 28 0 38 3 33 12 -10 15 -8
147 1 156 4 4 10 1 12 -5 3 -7 13 -13 24 -13 18 0 20 6 17 73 -2 39 -7 72 -13
72 -5 0 -18 5 -28 11 -17 10 -16 11 4 30 12 10 19 13 15 7 -4 -7 -2 -13 3 -13
10 0 15 14 12 33 -1 4 7 2 17 -4 12 -7 17 -21 15 -38 -1 -14 -4 -52 -6 -83
l-4 -58 69 0 c49 0 67 3 62 11 -12 20 -10 159 2 159 7 0 14 -7 18 -15 7 -20
36 -8 36 16 0 17 11 24 33 20 4 0 7 3 7 9 0 5 9 10 19 10 16 0 18 -6 15 -37
-2 -21 -5 -59 -7 -85 l-5 -48 71 0 c45 0 67 4 61 9 -11 12 -6 161 7 161 5 0 9
-6 9 -14 0 -9 7 -12 20 -9 14 4 20 14 20 35 0 17 4 27 10 23 6 -3 10 1 10 9 0
19 30 22 31 4 2 -35 -3 -135 -7 -150 -5 -16 2 -18 59 -18 l65 0 1 82 c2 85 6
102 20 79 5 -7 13 -11 19 -7 6 3 13 0 15 -6 3 -7 6 6 6 30 1 23 5 42 9 42 5 0
7 20 6 44 -4 78 -1 82 69 80 l62 -1 3 -42 c4 -51 -4 -79 -19 -64 -12 12 -61 4
-53 -9 3 -5 -4 -4 -15 4 -30 18 -37 3 -40 -80 -1 -37 -4 -75 -7 -84 -5 -16 3
-18 66 -18 52 0 69 3 64 12 -10 15 -8 147 1 156 4 4 10 1 12 -5 3 -7 13 -13
24 -13 16 0 19 7 19 41 0 47 15 80 33 73 13 -5 14 -57 3 -141 l-5 -33 63 0 64
0 1 87 c2 88 7 114 17 76 10 -35 44 -18 44 22 0 19 6 40 14 47 7 8 16 41 19
73 4 33 6 60 7 60 0 1 28 0 63 0 l62 -2 1 -49 c2 -47 0 -50 -24 -52 -14 -1
-32 -8 -40 -15 -13 -9 -14 -9 -8 1 5 8 -1 12 -22 12 l-30 0 -1 -80 c-1 -44 -4
-86 -7 -95 -5 -12 5 -15 59 -15 l66 0 0 73 c0 117 -1 115 15 95 7 -10 20 -18
28 -18 12 0 17 20 22 88 7 82 11 123 14 148 1 6 27 9 65 9 l62 -2 1 -51 c1
-29 -2 -49 -7 -46 -5 3 -9 0 -9 -7 0 -8 -3 -9 -13 0 -8 6 -17 8 -20 4 -4 -3
-21 -6 -39 -7 -31 -1 -32 -3 -35 -46 -2 -25 -5 -66 -6 -92 l-4 -48 69 0 c62 0
68 2 61 18 -11 22 -9 139 2 149 4 5 10 2 12 -4 3 -7 13 -13 24 -13 18 0 20 6
17 73 -2 39 -7 72 -13 73 -30 2 -41 16 -37 45 3 18 8 26 12 19 9 -14 32 -9 47
10 6 9 13 40 15 70 l3 53 66 1 66 1 2 -47 c2 -53 0 -54 -89 -61 -33 -3 -44 -7
-41 -18 5 -20 1 -130 -5 -151 -5 -16 3 -18 66 -18 64 0 70 2 63 18 -5 9 -8 24
-7 32 1 8 3 44 4 80 1 55 3 61 12 43 6 -13 19 -23 30 -23 16 0 18 9 18 69 0
66 -1 69 -29 81 -26 10 -28 15 -21 39 9 31 -2 57 -19 47 -6 -4 -11 -3 -11 3 0
5 14 16 30 25 17 8 28 10 25 5 -4 -5 -1 -9 4 -9 11 0 15 15 12 35 -1 6 6 2 15
-7 14 -13 17 -31 15 -80 -1 -35 -4 -71 -7 -80 -5 -16 3 -18 66 -18 54 0 69 3
64 12 -9 14 -7 149 2 157 3 3 8 1 12 -5 4 -6 15 -13 25 -17 15 -6 17 0 17 43
0 49 1 50 31 50 20 0 28 4 23 11 -6 10 -8 93 -4 157 1 16 1 16 14 0 7 -10 21
-18 30 -18 13 0 16 11 16 60 0 33 4 60 9 60 5 0 9 37 10 82 2 85 6 102 20 79
5 -7 13 -11 19 -7 6 3 13 0 15 -6 3 -7 6 22 6 64 1 49 -3 78 -10 80 -7 2 -11
27 -10 63 1 60 7 77 19 59 4 -6 15 -13 25 -17 13 -5 17 -1 17 14 0 15 5 20 23
17 17 -2 21 -8 18 -28z m203 -105 c3 -9 12 -12 22 -8 12 4 15 1 12 -18 -2 -16
-11 -25 -25 -27 -13 -2 -23 -8 -23 -13 0 -5 -3 -9 -7 -9 -7 0 -8 38 -4 83 2
13 19 8 25 -8z m-431 -24 c-3 -19 2 -21 47 -21 46 0 50 -2 50 -24 0 -23 -23
-41 -40 -31 -5 3 -11 1 -15 -4 -3 -7 -15 -7 -30 -1 -15 6 -27 6 -30 0 -21 -34
-32 13 -19 78 7 35 41 39 37 3z m357 2 c0 -5 -5 -15 -10 -23 -7 -12 -9 -10 -7
8 1 19 17 33 17 15z m-3 -65 c-3 -8 -6 -5 -6 6 -1 11 2 17 5 13 3 -3 4 -12 1
-19z m-387 -68 c-9 -17 -14 -18 -30 -7 -11 6 -16 13 -10 15 5 2 10 10 10 18 0
12 4 12 20 4 16 -9 18 -15 10 -30z m67 -12 c-3 -8 -6 -5 -6 6 -1 11 2 17 5 13
3 -3 4 -12 1 -19z m501 -59 c-3 -45 -13 -44 -13 1 0 21 3 36 8 33 4 -2 6 -18
5 -34z m72 21 c0 -10 8 -24 18 -29 15 -9 15 -10 -5 -11 -19 0 -23 -6 -23 -32
0 -18 -5 -40 -11 -48 -9 -12 -10 -12 -5 3 3 10 6 45 6 78 0 33 4 59 10 59 6 0
10 -9 10 -20z m-647 -77 c-4 -9 5 -13 26 -13 31 0 32 -2 30 -38 -2 -32 -6 -38
-27 -40 -14 -1 -32 -8 -40 -15 -13 -10 -14 -9 -8 2 7 11 1 13 -28 9 l-38 -4 6
55 c3 31 5 56 6 57 0 0 17 0 39 0 26 -1 37 -5 34 -13z m577 -47 c0 -3 -4 -8
-10 -11 -5 -3 -10 -1 -10 4 0 6 5 11 10 11 6 0 10 -2 10 -4z m189 -58 c1 -31
-3 -48 -10 -48 -7 0 -5 -7 5 -19 20 -22 26 -72 9 -78 -8 -3 -13 11 -15 39 l-3
43 -64 -1 -63 0 6 55 c3 31 5 56 6 56 0 0 29 0 63 0 l64 0 2 -47z m-769 -73
c0 -14 -2 -25 -4 -25 -2 0 -6 11 -8 25 -3 14 -1 25 3 25 5 0 9 -11 9 -25z
m710 -35 c0 -5 -2 -10 -4 -10 -3 0 -8 5 -11 10 -3 6 -1 10 4 10 6 0 11 -4 11
-10z m-796 -19 c14 -1 17 -6 12 -26 -5 -19 -2 -25 9 -25 11 0 15 -9 13 -29 -2
-23 -5 -28 -18 -21 -19 10 -53 -7 -44 -22 4 -7 2 -8 -5 -4 -6 4 -8 12 -5 18 5
8 -5 9 -30 5 l-38 -6 6 57 c3 31 5 57 6 58 0 0 17 0 38 -2 20 -1 45 -2 56 -3z
m793 -20 c0 -11 -5 -18 -9 -15 -4 3 -5 11 -1 19 7 21 12 19 10 -4z m209 -63
c0 -50 -1 -56 -16 -48 -10 5 -20 7 -22 4 -3 -2 -26 -6 -53 -8 l-47 -3 6 56 c3
31 5 56 6 56 0 0 28 0 63 0 l62 0 1 -57z m-211 -8 c3 -5 1 -10 -4 -10 -6 0
-11 5 -11 10 0 6 2 10 4 10 3 0 8 -4 11 -10z m-817 -75 c-3 -28 -11 -24 -13 5
-1 11 2 20 7 20 4 0 7 -11 6 -25z m969 -35 c-1 -21 -4 -36 -7 -34 -7 8 -6 82
2 78 4 -3 7 -22 5 -44z m65 3 c-7 -65 -12 -67 -12 -5 0 29 4 52 9 52 5 0 6
-21 3 -47z m126 -119 c-1 -47 -3 -50 -27 -51 -14 -1 -47 -3 -72 -6 l-46 -3 8
35 c4 19 7 37 7 40 -3 33 4 36 66 36 l64 0 0 -51z m-193 26 c3 -5 1 -10 -4
-10 -6 0 -11 5 -11 10 0 6 2 10 4 10 3 0 8 -4 11 -10z m-401 -110 c-6 -6 -10
-3 -10 10 0 13 4 16 10 10 7 -7 7 -13 0 -20z m196 -21 c0 -11 -4 -18 -10 -14
-5 3 -7 12 -3 20 7 21 13 19 13 -6z m-964 -28 c0 -16 -4 -27 -7 -25 -4 2 -6
12 -4 22 2 9 4 20 4 25 1 4 3 7 5 7 2 0 3 -13 2 -29z m774 19 c0 -5 -2 -10 -4
-10 -3 0 -8 5 -11 10 -3 6 -1 10 4 10 6 0 11 -4 11 -10z m530 0 c0 -5 -5 -10
-11 -10 -5 0 -7 5 -4 10 3 6 8 10 11 10 2 0 4 -4 4 -10z m-532 -45 c-3 -3 -9
2 -12 12 -6 14 -5 15 5 6 7 -7 10 -15 7 -18z m530 0 c-3 -3 -9 2 -12 12 -6 14
-5 15 5 6 7 -7 10 -15 7 -18z m-1298 -45 c0 -5 -5 -10 -11 -10 -5 0 -7 5 -4
10 3 6 8 10 11 10 2 0 4 -4 4 -10z m770 -4 c0 -3 -4 -8 -10 -11 -5 -3 -10 -1
-10 4 0 6 5 11 10 11 6 0 10 -2 10 -4z m185 -6 c3 -5 1 -10 -4 -10 -6 0 -11 5
-11 10 0 6 2 10 4 10 3 0 8 -4 11 -10z m-1168 -97 c-3 -10 -5 -2 -5 17 0 19 2
27 5 18 2 -10 2 -26 0 -35z m1439 -95 c0 -50 -1 -56 -16 -48 -10 5 -20 7 -22
4 -3 -2 -26 -6 -53 -8 l-47 -3 6 56 c3 31 5 56 6 56 0 0 28 0 63 0 l62 0 1
-57z m-1436 1 c0 -11 -4 -18 -10 -14 -5 3 -7 12 -3 20 7 21 13 19 13 -6z
m-200 -9 c0 -5 -4 -10 -10 -10 -5 0 -10 5 -10 10 0 6 5 10 10 10 6 0 10 -4 10
-10z m-10 -57 c-11 -17 -11 -17 -6 0 3 10 6 24 7 30 0 9 2 9 5 0 3 -7 0 -20
-6 -30z m-568 19 c-4 -1 -7 -27 -6 -57 1 -47 -1 -53 -15 -45 -28 14 -50 -6
-45 -43 3 -24 2 -27 -5 -12 -5 11 -7 28 -5 38 3 15 -3 18 -29 15 -29 -3 -32 0
-34 27 -1 17 0 41 3 55 4 24 8 25 74 25 39 0 67 -1 62 -3z m358 -14 c0 -7 -4
-19 -9 -27 -7 -10 -9 -7 -8 12 2 26 17 39 17 15z m1797 -58 c-1 -21 -4 -36 -7
-34 -7 8 -6 82 2 78 4 -3 7 -22 5 -44z m-1577 10 c0 -5 -2 -10 -4 -10 -3 0 -8
5 -11 10 -3 6 -1 10 4 10 6 0 11 -4 11 -10z m-1062 -73 c3 -34 0 -47 -10 -49
-7 0 -17 -2 -23 -2 -5 -1 -14 -4 -20 -7 -5 -3 -26 -5 -45 -4 -34 1 -35 3 -36
40 -2 69 0 71 69 69 l62 -1 3 -46z m620 16 c0 -28 -2 -33 -8 -18 -6 17 -3 55
5 55 2 0 3 -17 3 -37z m217 -3 c3 -5 1 -10 -4 -10 -6 0 -11 5 -11 10 0 6 2 10
4 10 3 0 8 -4 11 -10z m1253 -14 c7 -4 12 -2 12 3 0 6 3 11 8 11 4 0 8 -23 10
-50 3 -58 2 -59 -81 -63 l-58 -3 5 55 c2 31 4 56 5 57 6 4 91 -5 99 -10z
m-2278 -26 c0 -5 -9 -10 -21 -10 -11 0 -17 5 -14 10 3 6 13 10 21 10 8 0 14
-4 14 -10z m2825 0 c3 -5 1 -10 -4 -10 -6 0 -11 5 -11 10 0 6 2 10 4 10 3 0 8
-4 11 -10z m-988 -57 c0 -29 -4 -50 -8 -47 -5 3 -9 0 -9 -7 0 -9 -3 -9 -14 0
-9 8 -16 8 -20 2 -7 -11 -55 -4 -73 11 -7 5 -11 24 -9 42 2 17 4 36 5 41 1 6
28 11 65 10 l64 0 -1 -52z m675 44 c0 -4 4 -26 8 -51 6 -43 6 -44 -22 -42 -15
1 -28 0 -28 -3 0 -3 -20 -6 -45 -6 -45 0 -45 0 -45 35 0 71 5 75 71 74 32 -1
60 -4 61 -7z m-1905 -29 c2 -17 0 -19 -7 -8 -5 8 -6 18 -4 22 8 12 10 10 11
-14z m1421 -29 c-1 -21 -4 -36 -6 -34 -8 8 -7 83 1 78 4 -2 7 -22 5 -44z
m-1648 26 c0 -8 -4 -15 -8 -15 -5 0 -9 7 -9 15 0 8 4 15 9 15 4 0 8 -7 8 -15z
m2358 -43 c0 -48 -3 -53 -22 -51 -11 0 -23 0 -26 -1 -3 -1 -25 -3 -51 -4 l-45
-1 7 45 c4 25 8 50 8 55 1 6 29 10 65 10 l64 0 0 -53z m-2611 -7 c1 -24 -1
-46 -5 -49 -5 -3 -8 78 -3 92 4 10 7 -4 8 -43z m683 35 c0 -5 -2 -10 -4 -10
-3 0 -8 5 -11 10 -3 6 -1 10 4 10 6 0 11 -4 11 -10z m-430 -20 c0 -5 -5 -10
-11 -10 -5 0 -7 5 -4 10 3 6 8 10 11 10 2 0 4 -4 4 -10z m1253 -19 c4 0 7 -12
7 -26 0 -14 5 -24 12 -22 17 3 23 -34 6 -44 -7 -5 -32 -8 -55 -7 -23 1 -45 -1
-49 -5 -19 -19 -26 -3 -21 51 4 31 6 57 7 58 0 1 85 -3 93 -5z m-1023 -5 c0
-3 -4 -8 -10 -11 -5 -3 -10 -1 -10 4 0 6 5 11 10 11 6 0 10 -2 10 -4z m1637
-43 c1 -24 0 -25 -6 -8 -7 17 -6 35 2 35 2 0 3 -12 4 -27z m-788 -34 c2 -54
-5 -59 -90 -63 l-50 -3 5 56 c2 31 5 56 5 56 1 0 30 0 65 0 l63 1 2 -47z
m1077 26 c5 -22 9 -24 22 -13 12 10 14 10 8 1 -10 -18 2 -16 21 2 22 23 28 12
25 -44 -5 -62 -27 -81 -60 -51 -12 11 -24 16 -27 11 -3 -6 3 -14 12 -20 16 -9
16 -10 -4 -11 -22 0 -23 4 -23 75 0 74 13 100 26 50z m-2156 -5 c0 -5 -2 -10
-4 -10 -3 0 -8 5 -11 10 -3 6 -1 10 4 10 6 0 11 -4 11 -10z m1400 -6 c0 -8 -5
-12 -10 -9 -6 4 -8 11 -5 16 9 14 15 11 15 -7z m250 -4 c0 -5 -5 -10 -11 -10
-5 0 -7 5 -4 10 3 6 8 10 11 10 2 0 4 -4 4 -10z m647 -5 c0 -8 -4 -12 -9 -9
-5 3 -6 10 -3 15 9 13 12 11 12 -6z m-2547 -16 c0 -11 -4 -18 -10 -14 -5 3 -7
12 -3 20 7 21 13 19 13 -6z m1126 -51 c0 -50 -1 -56 -16 -48 -10 5 -20 7 -23
4 -3 -3 -26 -7 -52 -8 l-47 -2 6 55 c3 31 5 56 6 56 0 0 28 0 63 0 l63 0 0
-57z m1204 43 c0 -6 -4 -12 -8 -15 -5 -3 -9 1 -9 9 0 8 4 15 9 15 4 0 8 -4 8
-9z m-852 -50 c1 -16 -1 -32 -5 -34 -5 -3 -8 12 -8 33 0 45 10 46 13 1z m642
9 c0 -5 -2 -10 -4 -10 -3 0 -8 5 -11 10 -3 6 -1 10 4 10 6 0 11 -4 11 -10z
m-2322 -40 c-1 -23 -4 -36 -8 -30 -6 10 -1 70 6 70 2 0 3 -18 2 -40z m1092 16
c0 -6 5 -5 12 2 20 20 25 14 27 -38 2 -56 -1 -57 -92 -64 l-48 -3 5 56 c3 31
5 56 5 56 21 5 91 -2 91 -9z m380 -27 c0 -11 -4 -18 -10 -14 -5 3 -7 12 -3 20
7 21 13 19 13 -6z m1060 11 c0 -5 -2 -10 -4 -10 -3 0 -8 5 -11 10 -3 6 -1 10
4 10 6 0 11 -4 11 -10z m215 -20 c3 -5 1 -10 -4 -10 -6 0 -11 5 -11 10 0 6 2
10 4 10 3 0 8 -4 11 -10z m-1068 -19 c0 -11 -5 -18 -9 -15 -4 3 -5 11 -1 19 7
21 12 19 10 -4z m-409 -16 c-3 -3 -9 2 -12 12 -6 14 -5 15 5 6 7 -7 10 -15 7
-18z m-1 -34 c0 -11 -5 -18 -9 -15 -4 3 -5 11 -1 19 7 21 12 19 10 -4z m413 9
c0 -5 -5 -10 -11 -10 -5 0 -7 5 -4 10 3 6 8 10 11 10 2 0 4 -4 4 -10z m-955
-19 c6 -1 9 -18 7 -41 -2 -23 0 -40 4 -39 21 4 35 -2 29 -11 -4 -6 -15 -10
-24 -8 -10 2 -26 -4 -36 -12 -13 -10 -16 -11 -11 -2 6 10 2 13 -15 12 -48 -4
-49 -2 -45 53 3 28 5 52 5 53 1 1 66 -3 86 -5z m1981 -46 c-1 -49 -1 -50 -36
-52 -19 -1 -50 -4 -67 -7 -30 -3 -33 -2 -33 24 0 15 3 40 6 56 5 28 7 29 69
29 l63 0 -2 -50z m-1236 25 c0 -5 -5 -10 -11 -10 -5 0 -7 5 -4 10 3 6 8 10 11
10 2 0 4 -4 4 -10z m-400 -20 c0 -5 -5 -10 -11 -10 -5 0 -7 5 -4 10 3 6 8 10
11 10 2 0 4 -4 4 -10z m-1323 -35 c0 -8 -4 -12 -9 -9 -5 3 -6 10 -3 15 9 13
12 11 12 -6z m1321 -10 c-3 -3 -9 2 -12 12 -6 14 -5 15 5 6 7 -7 10 -15 7 -18z
m193 2 c-10 -9 -11 -8 -5 6 3 10 9 15 12 12 3 -3 0 -11 -7 -18z m-944 -20 c6
-4 15 -2 20 5 5 9 10 3 14 -17 12 -56 10 -83 -6 -81 -9 1 -38 -1 -65 -4 -55
-7 -63 0 -55 55 2 17 4 35 4 41 1 11 69 12 88 1z m553 -7 c0 -11 -4 -20 -9
-20 -5 0 -7 9 -4 20 3 11 7 20 9 20 2 0 4 -9 4 -20z m-1120 -10 c0 -5 -5 -10
-11 -10 -5 0 -7 5 -4 10 3 6 8 10 11 10 2 0 4 -4 4 -10z m2781 -17 c-12 -20
-14 -14 -5 12 4 9 9 14 11 11 3 -2 0 -13 -6 -23z m115 -19 c0 -19 -2 -32 -5
-29 -2 3 -5 21 -6 40 0 18 2 32 5 29 3 -3 5 -21 6 -40z m-68 18 c2 -7 -1 -12
-8 -12 -6 0 -9 4 -6 9 4 5 1 12 -4 14 -6 3 -5 4 2 3 6 -1 14 -8 16 -14z
m-1935 -12 c-3 -11 -9 -20 -13 -20 -5 0 -6 9 -3 20 3 11 9 20 13 20 5 0 6 -9
3 -20z m427 10 c0 -5 -5 -10 -11 -10 -5 0 -7 5 -4 10 3 6 8 10 11 10 2 0 4 -4
4 -10z m-1323 -29 c0 -11 -5 -18 -9 -15 -4 3 -5 11 -1 19 7 21 12 19 10 -4z
m734 -4 c-10 -9 -11 -8 -5 6 3 10 9 15 12 12 3 -3 0 -11 -7 -18z m229 3 c0
-11 -4 -20 -8 -20 -4 0 -8 9 -8 20 0 11 4 20 8 20 4 0 8 -9 8 -20z m-792 -39
c1 -16 -1 -32 -5 -34 -5 -3 -8 12 -8 33 0 45 10 46 13 1z m231 15 c6 -4 11
-16 11 -27 0 -11 5 -17 10 -14 6 3 10 -3 10 -13 0 -23 -25 -46 -39 -38 -5 4
-12 3 -15 -2 -3 -4 -22 -7 -43 -7 -37 2 -38 3 -39 41 -2 65 3 71 50 69 24 -1
48 -5 55 -9z m479 -43 c0 -29 -4 -50 -9 -47 -5 3 -9 0 -9 -7 0 -9 -3 -9 -14 0
-10 8 -16 9 -21 1 -18 -29 -41 12 -36 65 4 36 10 41 55 41 l34 0 0 -53z m237
37 c3 -5 1 -10 -4 -10 -6 0 -11 5 -11 10 0 6 2 10 4 10 3 0 8 -4 11 -10z
m1698 -49 c14 -1 17 -6 12 -21 -4 -11 -2 -20 4 -20 12 0 15 -50 4 -51 -5 0
-17 -3 -28 -5 -11 -3 -39 -6 -62 -8 -41 -2 -43 -1 -43 24 0 15 3 41 6 57 5 28
9 29 47 27 23 -1 50 -3 60 -3z m-2646 -30 c0 -11 -5 -18 -9 -15 -4 3 -5 11 -1
19 7 21 12 19 10 -4z m380 -38 c-3 -10 -5 -4 -5 12 0 17 2 24 5 18 2 -7 2 -21
0 -30z m-377 -3 c0 -5 -5 -10 -11 -10 -5 0 -7 5 -4 10 3 6 8 10 11 10 2 0 4
-4 4 -10z m720 0 c0 -5 7 -10 16 -10 25 0 14 -51 -13 -61 -22 -8 -23 -6 -23
36 0 25 5 45 10 45 6 0 10 -4 10 -10z m-72 -31 c-3 -8 -7 -3 -11 10 -4 17 -3
21 5 13 5 -5 8 -16 6 -23z m-450 -9 c-1 -16 -4 -27 -7 -24 -8 8 -7 54 1 54 5
0 7 -13 6 -30z m177 0 c3 -5 1 -10 -4 -10 -6 0 -11 5 -11 10 0 6 2 10 4 10 3
0 8 -4 11 -10z m275 -19 c0 -6 -4 -12 -8 -15 -5 -3 -9 1 -9 9 0 8 4 15 9 15 4
0 8 -4 8 -9z m1894 -13 c-8 -30 -8 -30 -26 -23 -22 9 -10 45 14 45 15 0 18 -4
12 -22z m63 -5 c1 -24 0 -25 -6 -8 -7 17 -6 35 2 35 2 0 3 -12 4 -27z m-1957
-53 c0 -5 -5 -10 -11 -10 -5 0 -7 5 -4 10 3 6 8 10 11 10 2 0 4 -4 4 -10z
m-450 -4 c0 -3 -4 -8 -10 -11 -5 -3 -10 -1 -10 4 0 6 5 11 10 11 6 0 10 -2 10
-4z m2410 -5 c0 -6 -4 -12 -8 -15 -5 -3 -9 1 -9 9 0 8 4 15 9 15 4 0 8 -4 8
-9z m-8 -63 c-7 -7 -12 -8 -12 -2 0 14 12 26 19 19 2 -3 -1 -11 -7 -17z
m-1784 -27 c1 -16 -1 -32 -5 -34 -6 -4 -9 44 -4 61 3 9 7 -3 9 -27z m1632 -36
c0 -8 -4 -15 -8 -15 -5 0 -9 7 -9 15 0 8 4 15 9 15 4 0 8 -7 8 -15z m-1423
-18 c6 -4 14 -3 18 3 13 22 22 8 24 -39 1 -37 -3 -50 -15 -55 -9 -3 -20 -4
-25 0 -5 3 -9 2 -9 -3 0 -4 -20 -8 -45 -8 -42 0 -45 1 -45 26 0 15 3 40 6 56
5 27 9 29 43 28 20 0 42 -4 48 -8z m1271 -40 c2 -30 0 -47 -8 -47 -6 0 -8 -4
-5 -10 4 -6 -1 -7 -11 -3 -22 8 -82 8 -91 0 -18 -19 -25 -2 -20 51 4 31 6 57
7 58 0 0 28 0 62 -1 l63 -1 3 -47z m-1483 22 c-3 -12 -7 -24 -10 -27 -3 -3 -3
5 -1 19 6 30 5 29 10 29 3 0 3 -10 1 -21z m1632 -4 c0 -8 -4 -12 -9 -9 -5 3
-6 10 -3 15 9 13 12 11 12 -6z m-1627 -39 c0 -3 -4 -8 -10 -11 -5 -3 -10 -1
-10 4 0 6 5 11 10 11 6 0 10 -2 10 -4z m1418 -85 c1 -16 -1 -32 -5 -34 -5 -3
-8 12 -8 33 0 45 10 46 13 1z m-1158 -9 c0 -38 -7 -55 -19 -47 -10 5 0 85 10
85 5 0 9 -17 9 -38z m-70 8 c0 -5 -5 -10 -11 -10 -5 0 -7 5 -4 10 3 6 8 10 11
10 2 0 4 -4 4 -10z m0 -50 c0 -5 -5 -10 -11 -10 -5 0 -7 5 -4 10 3 6 8 10 11
10 2 0 4 -4 4 -10z m1227 -22 c-3 -8 -6 -5 -6 6 -1 11 2 17 5 13 3 -3 4 -12 1
-19z m-230 -28 c-2 -11 -6 -22 -9 -26 -4 -3 -5 2 -3 13 2 10 4 21 4 26 1 4 3
7 6 7 3 0 4 -9 2 -20z m-1002 -10 c3 -5 1 -10 -4 -10 -6 0 -11 5 -11 10 0 6 2
10 4 10 3 0 8 -4 11 -10z m908 -39 c5 0 5 -7 2 -13 -4 -7 1 -4 10 7 17 19 17
18 12 -22 -3 -24 -2 -43 2 -43 4 0 8 -7 8 -15 0 -10 -8 -15 -21 -14 -38 3 -44
-1 -40 -23 4 -22 4 -22 -6 1 -9 19 -15 22 -40 17 -29 -5 -41 6 -19 20 8 5 8 9
-1 14 -7 4 -9 19 -5 42 6 33 8 34 48 32 23 0 46 -2 50 -3z m-505 -67 c-1 -47
-3 -50 -27 -52 -14 0 -46 -3 -70 -5 l-43 -4 6 56 c3 31 5 56 6 56 0 0 29 0 64
0 l64 0 0 -51z m-261 -66 c-3 -8 -6 -5 -6 6 -1 11 2 17 5 13 3 -3 4 -12 1 -19z
m200 -40 c-3 -7 -5 -2 -5 12 0 14 2 19 5 13 2 -7 2 -19 0 -25z m543 12 c0 -5
-2 -10 -4 -10 -3 0 -8 5 -11 10 -3 6 -1 10 4 10 6 0 11 -4 11 -10z m-3 -35 c0
-8 -4 -12 -9 -9 -5 3 -6 10 -3 15 9 13 12 11 12 -6z m-546 -18 c-10 -9 -11 -8
-5 6 3 10 9 15 12 12 3 -3 0 -11 -7 -18z m546 -22 c0 -8 -4 -12 -9 -9 -5 3 -6
10 -3 15 9 13 12 11 12 -6z m-329 -70 c1 -19 -2 -36 -6 -39 -4 -2 -7 14 -7 35
0 48 11 52 13 4z m199 -57 c-3 -8 -6 -5 -6 6 -1 11 2 17 5 13 3 -3 4 -12 1
-19z m-197 -32 c0 -3 -4 -8 -10 -11 -5 -3 -10 -1 -10 4 0 6 5 11 10 11 6 0 10
-2 10 -4z m197 -28 c-3 -8 -6 -5 -6 6 -1 11 2 17 5 13 3 -3 4 -12 1 -19z m3
-52 c0 -3 -4 -8 -10 -11 -5 -3 -10 -1 -10 4 0 6 5 11 10 11 6 0 10 -2 10 -4z"/>
<path d="M4555 3405 c-5 -2 -53 -11 -106 -20 l-95 -16 -37 -75 c-45 -91 -46
-97 -7 -89 17 4 30 4 30 1 0 -4 -13 -30 -30 -59 -34 -61 -36 -69 -15 -61 21 8
19 2 -16 -69 l-31 -62 96 95 c53 52 96 96 96 98 0 2 -7 2 -15 -2 -28 -10 -15
7 48 65 l62 58 -37 -3 c-21 -1 -38 0 -38 4 0 3 27 32 60 65 67 66 76 84 35 70z
m-61 -77 c-32 -35 -62 -64 -66 -66 -22 -10 -3 -19 30 -15 l37 4 -63 -59 c-46
-43 -59 -61 -47 -64 12 -2 2 -16 -36 -53 -47 -46 -50 -47 -35 -18 20 41 20 57
0 49 -15 -6 -15 -4 -2 16 44 71 59 98 51 99 -4 1 -20 0 -35 -1 -16 -1 -28 1
-28 4 0 3 14 34 31 69 l32 64 86 15 c47 9 90 16 95 17 5 0 -18 -27 -50 -61z"/>
<path d="M4606 3401 c-4 -5 2 -14 11 -20 16 -9 16 -10 -4 -11 -19 0 -22 -6
-25 -42 -2 -36 -7 -44 -25 -46 -17 -3 -24 -12 -29 -40 -13 -70 -10 -104 9
-107 9 -2 17 3 17 10 0 7 4 15 10 17 5 2 11 28 13 58 l3 55 59 0 c60 0 60 0
71 35 13 40 9 60 -15 60 -12 0 -10 5 9 20 16 12 20 20 11 20 -8 0 -25 -10 -38
-22 l-23 -21 -24 22 c-14 13 -26 18 -30 12z"/>
<path d="M4350 4875 c-14 -16 -10 -18 14 -9 9 3 16 10 16 15 0 14 -16 11 -30
-6z"/>
<path d="M1440 4853 c0 -5 5 -14 12 -21 9 -9 8 -12 -5 -12 -13 0 -17 -9 -17
-41 0 -35 -3 -41 -29 -50 -16 -6 -28 -15 -27 -22 0 -7 -3 -33 -7 -59 -6 -33
-12 -45 -22 -42 -9 4 -11 13 -6 32 10 34 4 52 -17 52 -13 0 -11 5 8 20 16 12
20 20 11 20 -8 0 -25 -10 -37 -21 l-23 -21 -30 22 c-30 21 -43 16 -19 -8 9 -9
8 -12 -5 -12 -13 0 -17 -9 -17 -40 0 -34 -4 -42 -25 -50 -14 -5 -28 -21 -32
-37 -8 -27 -9 -28 -26 -11 -17 18 -17 19 4 27 16 5 19 10 10 15 -7 5 -22 -1
-36 -14 l-24 -22 -27 21 c-15 12 -30 19 -33 15 -3 -3 3 -12 13 -20 19 -14 19
-14 -2 -14 -17 0 -21 -7 -24 -42 -2 -35 -7 -43 -27 -48 -17 -4 -25 -14 -28
-35 -7 -50 -11 -79 -12 -91 -2 -21 -28 -23 -49 -3 -12 10 -24 15 -27 10 -3 -6
3 -14 12 -20 16 -9 16 -10 -4 -11 -20 0 -23 -5 -23 -39 0 -33 -4 -42 -27 -53
-15 -8 -28 -23 -30 -38 -2 -14 -6 -34 -8 -45 -2 -11 -4 -28 -4 -37 -1 -10 -14
-24 -30 -32 -26 -14 -30 -14 -41 -1 -7 8 -19 15 -27 15 -13 0 -13 -3 -3 -15
10 -12 10 -15 -4 -15 -12 0 -16 -10 -16 -39 0 -33 -4 -42 -27 -53 -14 -7 -28
-22 -29 -33 -14 -92 -16 -115 -6 -115 6 0 13 8 15 18 4 15 5 14 6 -2 1 -18 2
-18 13 -3 23 30 33 4 28 -71 l-5 -73 -21 20 c-23 21 -41 17 -23 -6 9 -10 8
-13 -4 -13 -11 0 -17 -12 -19 -42 -2 -36 -7 -44 -25 -46 -17 -3 -24 -12 -29
-40 -13 -70 -10 -104 9 -107 9 -2 17 3 17 10 0 7 4 15 10 17 5 2 11 28 13 58
l3 55 64 -1 65 0 0 -50 0 -49 -62 -3 -63 -3 0 -32 c0 -25 -7 -37 -28 -50 -27
-15 -30 -15 -49 3 -23 20 -40 15 -22 -7 9 -10 8 -13 -5 -13 -12 0 -16 -10 -16
-41 0 -35 -4 -41 -28 -50 -16 -5 -29 -15 -29 -22 0 -7 -4 -38 -7 -69 -7 -53
-6 -57 13 -55 12 1 21 7 21 14 0 7 5 12 11 11 7 -2 12 17 13 47 2 28 4 55 4
60 1 6 30 10 65 10 l63 0 0 -55 0 -55 -58 2 c-40 2 -60 -1 -63 -10 -2 -6 -5
-49 -7 -94 l-3 -83 33 0 c30 0 32 -2 27 -27 -2 -16 -8 -50 -11 -78 -7 -48 -6
-49 11 -35 11 9 16 10 11 3 -4 -7 -2 -13 3 -13 6 0 11 10 11 23 0 18 2 19 10
7 11 -17 13 -9 10 33 -1 15 1 40 5 55 5 26 8 27 69 27 l62 0 0 -55 1 -55 -61
0 -61 0 -2 -55 c-1 -30 -4 -72 -7 -92 l-4 -38 59 0 c46 0 59 -3 59 -15 0 -18
16 -20 23 -2 4 9 6 9 6 -1 1 -11 4 -11 15 0 8 8 16 41 19 74 4 32 6 60 7 60 1
4 79 -4 88 -10 6 -3 13 -2 17 4 15 24 23 6 22 -49 -1 -52 -3 -58 -18 -51 -9 5
-19 7 -22 3 -4 -3 -24 -6 -44 -7 l-38 -1 -2 -50 c-2 -27 -4 -69 -7 -92 l-4
-43 63 0 64 0 -2 85 c-2 62 1 85 11 85 6 0 12 -4 12 -10 0 -5 9 -10 20 -10 19
0 21 5 18 73 -2 51 -7 71 -15 69 -7 -1 -13 2 -13 8 0 5 -6 10 -14 10 -11 0
-13 7 -6 30 7 25 5 32 -12 44 -19 13 -19 15 -1 24 10 6 15 14 11 17 -4 4 -19
-2 -34 -14 l-26 -21 -26 20 c-14 11 -28 17 -31 14 -3 -4 0 -9 7 -11 17 -6 15
-23 -3 -23 -11 0 -15 11 -15 39 0 33 -4 40 -29 51 -26 10 -28 15 -21 41 7 24
5 32 -11 42 -19 12 -19 12 3 29 14 10 17 18 10 18 -8 0 -25 -9 -38 -19 -24
-19 -26 -19 -54 -3 -29 16 -43 62 -20 62 6 0 10 -6 10 -14 0 -9 7 -12 20 -9
18 5 20 14 20 73 0 45 -4 70 -12 73 -7 3 9 6 35 6 38 1 46 4 40 15 -4 8 -7 49
-5 91 l4 77 20 -22 c13 -13 24 -18 30 -12 12 12 6 147 -7 148 -30 2 -41 16
-37 44 4 27 8 30 39 30 24 0 32 4 27 12 -9 13 -7 148 1 157 4 3 9 1 13 -5 4
-6 15 -13 25 -17 15 -6 17 1 17 53 l0 60 64 0 64 0 0 86 c0 92 4 107 21 75 19
-34 41 -15 41 35 l0 44 49 0 50 0 0 63 c0 34 0 75 0 91 l1 30 21 -23 c31 -33
41 -14 37 73 -2 60 0 75 10 71 8 -3 15 -5 16 -5 1 0 1 -12 0 -27 -2 -16 -5
-54 -7 -85 l-4 -58 69 0 c51 0 67 3 62 12 -7 11 -8 38 -5 133 1 35 3 38 15 23
7 -10 21 -18 30 -18 13 0 16 11 16 64 0 44 5 69 15 80 8 8 15 32 15 53 0 71 6
80 54 78 24 -1 48 -5 55 -9 6 -4 11 -2 11 3 0 6 4 11 8 11 14 0 14 -92 0 -101
-7 -5 -36 -9 -64 -9 l-52 0 -1 -80 c-1 -44 -4 -86 -7 -95 -5 -13 6 -15 65 -15
59 0 71 3 64 14 -11 19 -4 156 8 156 5 0 9 -6 9 -14 0 -9 7 -12 20 -9 19 5 21
12 18 77 -2 39 -7 71 -13 72 -32 3 -44 16 -35 40 8 19 5 29 -10 44 -19 19 -19
20 3 31 13 8 17 14 10 16 -7 3 -25 -5 -39 -16 l-26 -21 -29 21 c-16 11 -29 16
-29 12z m-104 -311 c1 -29 -2 -49 -7 -46 -5 3 -9 0 -9 -7 0 -8 -3 -9 -13 0 -8
6 -17 8 -20 5 -3 -4 -24 -7 -47 -8 -40 -2 -40 -2 -39 33 3 77 4 77 72 76 l62
-2 1 -51z m161 -4 c-3 -8 -6 -5 -6 6 -1 11 2 17 5 13 3 -3 4 -12 1 -19z m1
-43 c-3 -3 -9 2 -12 12 -6 14 -5 15 5 6 7 -7 10 -15 7 -18z m-401 -38 c6 -4
14 -3 18 3 14 23 23 7 23 -43 -1 -32 -5 -54 -12 -55 -6 -1 -35 -2 -64 -3 -29
-2 -55 -6 -58 -11 -3 -4 -2 -8 3 -8 4 0 6 -25 5 -56 -3 -45 -7 -54 -20 -51
-10 2 -15 10 -13 18 2 8 3 29 2 48 0 19 3 39 8 45 5 6 11 36 15 66 3 30 6 55
6 56 2 4 78 -4 87 -9z m403 -1 c0 -3 -4 -8 -10 -11 -5 -3 -10 -1 -10 4 0 6 5
11 10 11 6 0 10 -2 10 -4z m-223 -43 c1 -24 0 -25 -6 -8 -7 17 -6 35 2 35 2 0
3 -12 4 -27z m-199 -109 c-3 -14 -5 -12 -10 9 -3 19 -2 25 4 19 6 -6 8 -18 6
-28z m202 16 c0 -5 -2 -10 -4 -10 -3 0 -8 5 -11 10 -3 6 -1 10 4 10 6 0 11 -4
11 -10z m-203 -62 c-3 -8 -6 -5 -6 6 -1 11 2 17 5 13 3 -3 4 -12 1 -19z m-140
-41 c6 -4 14 -3 18 3 13 20 22 0 22 -47 l0 -48 -46 -3 c-25 -2 -55 -4 -66 -5
-17 -2 -20 4 -21 38 -1 64 3 71 44 70 21 0 42 -4 49 -8z m143 -17 c0 -5 -5
-10 -11 -10 -5 0 -7 5 -4 10 3 6 8 10 11 10 2 0 4 -4 4 -10z m-229 -178 c-2
-42 -5 -72 -8 -65 -2 7 -11 9 -19 6 -8 -3 -14 0 -14 6 0 6 -6 11 -14 11 -11 0
-13 7 -6 30 7 24 5 32 -11 43 -22 16 -15 27 18 27 13 0 23 6 23 14 0 9 7 12
18 10 15 -4 17 -15 13 -82z m69 38 c0 -16 -2 -30 -4 -30 -2 0 -6 14 -8 30 -3
17 -1 30 4 30 4 0 8 -13 8 -30z m-4 -55 c-1 -8 -5 -17 -8 -21 -5 -4 -4 16 1
34 3 9 9 -1 7 -13z m-127 -83 c1 -43 -21 -84 -34 -62 -4 6 -10 8 -15 5 -5 -3
-27 -7 -50 -9 l-42 -4 6 51 c3 29 6 54 6 57 0 3 29 6 63 6 l64 0 2 -44z m131
38 c0 -5 -5 -10 -11 -10 -5 0 -7 5 -4 10 3 6 8 10 11 10 2 0 4 -4 4 -10z
m-193 -189 c0 -11 -5 -18 -9 -15 -4 3 -5 11 -1 19 7 21 12 19 10 -4z m-73
-321 c-6 -6 -10 -3 -10 10 0 13 4 16 10 10 7 -7 7 -13 0 -20z m6 -30 c0 -5 -2
-10 -4 -10 -3 0 -8 5 -11 10 -3 6 -1 10 4 10 6 0 11 -4 11 -10z m-70 -20 c0
-5 -5 -10 -11 -10 -5 0 -7 5 -4 10 3 6 8 10 11 10 2 0 4 -4 4 -10z m68 -25
c-3 -3 -9 2 -12 12 -6 14 -5 15 5 6 7 -7 10 -15 7 -18z m2 -49 c0 -3 -4 -8
-10 -11 -5 -3 -10 -1 -10 4 0 6 5 11 10 11 6 0 10 -2 10 -4z m-122 -207 c1
-37 -5 -35 -12 4 -2 15 -1 27 3 27 4 0 8 -14 9 -31z m67 -19 c3 -5 1 -10 -4
-10 -6 0 -11 5 -11 10 0 6 2 10 4 10 3 0 8 -4 11 -10z m-70 -29 c3 -5 2 -12
-3 -15 -5 -3 -9 1 -9 9 0 17 3 19 12 6z m5 -45 c0 -3 -4 -8 -10 -11 -5 -3 -10
-1 -10 4 0 6 5 11 10 11 6 0 10 -2 10 -4z m110 -166 c0 -5 -2 -10 -4 -10 -3 0
-8 5 -11 10 -3 6 -1 10 4 10 6 0 11 -4 11 -10z m70 1 c0 -5 9 -11 21 -14 25
-7 16 -27 -11 -27 -10 0 -21 -8 -23 -17 -3 -10 -5 1 -6 25 0 23 4 42 9 42 6 0
10 -4 10 -9z m-73 -56 c0 -8 -4 -12 -9 -9 -5 3 -6 10 -3 15 9 13 12 11 12 -6z
m183 -145 c0 -5 -5 -10 -11 -10 -5 0 -7 5 -4 10 3 6 8 10 11 10 2 0 4 -4 4
-10z m0 -120 c0 -5 -2 -10 -4 -10 -3 0 -8 5 -11 10 -3 6 -1 10 4 10 6 0 11 -4
11 -10z"/>
<path d="M3449 4678 c-1 -7 -1 -34 -1 -61 0 -26 -4 -44 -9 -41 -5 3 -9 0 -9
-7 0 -9 -3 -9 -14 0 -8 7 -16 8 -19 4 -3 -5 -21 -8 -40 -7 l-35 2 -1 -78 c0
-43 -4 -85 -7 -94 -5 -14 4 -16 66 -16 50 0 69 3 64 11 -6 11 -7 36 -4 137 1
33 2 35 14 20 7 -10 21 -18 30 -18 13 0 16 12 16 70 0 56 -3 70 -15 70 -8 0
-15 5 -15 10 0 15 -20 12 -21 -2z m-59 -169 c0 -11 -4 -18 -10 -14 -5 3 -7 12
-3 20 7 21 13 19 13 -6z m0 -109 c0 -5 -2 -10 -4 -10 -3 0 -8 5 -11 10 -3 6
-1 10 4 10 6 0 11 -4 11 -10z"/>
<path d="M2469 4376 c-2 -3 -4 -29 -3 -60 1 -52 0 -54 -21 -46 -12 4 -28 4
-35 0 -8 -5 -18 -6 -23 -3 -15 9 -58 -7 -51 -19 8 -13 6 -122 -2 -150 -5 -16
2 -18 60 -18 l65 0 0 81 c0 45 2 83 5 86 3 3 13 -2 22 -11 26 -27 35 -6 32 70
-3 61 -5 69 -23 72 -12 2 -23 1 -26 -2z m-68 -209 c-10 -9 -11 -8 -5 6 3 10 9
15 12 12 3 -3 0 -11 -7 -18z"/>
<path d="M4014 4337 l-101 -19 -36 -74 c-45 -91 -46 -97 -7 -89 37 8 37 3 0
-60 -34 -57 -36 -67 -15 -59 12 5 12 0 -2 -35 -16 -40 -25 -44 -65 -27 -12 6
-14 14 -9 34 10 34 4 52 -17 52 -13 0 -11 5 8 20 33 25 16 26 -25 0 -31 -19
-32 -19 -52 0 -23 20 -40 15 -22 -7 9 -10 8 -13 -5 -13 -12 0 -16 -10 -16 -40
0 -37 -8 -48 -45 -62 -5 -1 -10 -10 -10 -18 -1 -8 -5 -38 -9 -65 -7 -47 -6
-51 13 -51 12 0 21 6 21 14 0 7 5 10 10 7 6 -3 10 2 11 12 1 25 6 86 8 99 1
11 69 12 88 1 6 -4 14 -3 18 3 14 23 21 7 21 -49 0 -52 -2 -59 -16 -51 -19 10
-53 -7 -44 -22 4 -7 2 -8 -5 -4 -6 4 -9 12 -6 17 4 5 -7 9 -23 9 l-30 0 -1
-80 c-1 -44 -4 -86 -7 -95 -5 -12 5 -15 58 -15 l64 0 1 81 c1 45 4 83 7 86 3
3 12 -2 21 -11 25 -24 35 -11 35 47 0 52 0 52 87 139 59 59 82 88 70 88 -13 0
-2 16 37 54 31 30 56 57 56 61 0 3 -17 4 -37 0 l-38 -6 68 68 c37 38 67 71 67
74 0 8 -15 7 -126 -14z m41 -59 c-33 -35 -63 -64 -67 -66 -22 -11 -3 -20 30
-15 l37 6 -63 -61 c-42 -41 -57 -62 -45 -62 12 0 3 -15 -32 -50 -51 -52 -70
-59 -41 -16 18 28 21 50 6 41 -17 -10 -11 6 20 62 17 29 27 53 23 54 -5 1 -20
0 -35 -1 -16 -1 -28 2 -28 7 0 4 15 35 33 68 l32 60 85 16 c47 9 89 17 95 18
5 0 -17 -27 -50 -61z m-335 -532 c0 -3 -4 -8 -10 -11 -5 -3 -10 -1 -10 4 0 6
5 11 10 11 6 0 10 -2 10 -4z m-8 -58 c-7 -7 -12 -8 -12 -2 0 6 3 14 7 17 3 4
9 5 12 2 2 -3 -1 -11 -7 -17z"/>
<path d="M3450 3925 c0 -9 5 -13 10 -10 6 3 10 1 10 -4 0 -6 -6 -11 -14 -11
-10 0 -16 -14 -18 -42 -2 -35 -7 -43 -27 -48 -17 -4 -25 -14 -27 -35 -9 -72
-10 -73 -42 -66 -4 0 -6 19 -4 41 3 34 1 40 -14 40 -16 0 -15 3 6 20 20 16 22
20 8 20 -10 0 -18 -4 -18 -8 0 -5 -11 -14 -24 -20 -20 -9 -28 -7 -47 9 -25 22
-39 18 -19 -6 10 -12 10 -15 -4 -15 -12 0 -16 -10 -16 -41 0 -35 -3 -41 -29
-50 -18 -6 -29 -17 -29 -27 1 -9 -2 -41 -6 -69 -7 -49 -6 -53 13 -53 12 0 21
7 21 15 0 8 6 12 13 10 8 -4 12 6 11 33 -3 82 0 87 70 87 l62 0 -1 -55 0 -55
-60 3 -61 2 -2 -77 c-2 -43 -5 -86 -8 -95 -5 -16 2 -18 59 -18 l65 0 -1 80 c0
74 9 113 20 83 3 -7 13 -13 24 -13 17 0 19 8 19 62 0 34 3 58 7 55 11 -12 32
28 33 63 1 69 7 78 55 75 25 -2 49 -6 55 -10 5 -3 10 -1 10 4 0 6 4 11 8 11
12 0 15 -107 3 -114 -5 -4 -12 -2 -16 4 -4 7 -13 7 -26 0 -11 -6 -24 -8 -30
-5 -15 10 -61 -4 -54 -16 8 -13 8 -124 0 -149 -6 -18 -1 -20 58 -20 l65 0 0
81 c0 79 6 104 20 83 4 -6 15 -13 25 -17 15 -6 17 1 17 69 0 74 0 75 -29 85
-27 10 -29 13 -20 42 5 17 8 31 6 32 -1 1 -11 7 -22 13 -19 10 -19 11 4 20 18
6 21 11 12 17 -7 4 -16 3 -20 -2 -11 -18 -49 -34 -56 -23 -3 5 -15 15 -26 20
-15 9 -19 7 -19 -5z m57 -260 c0 -8 -4 -12 -9 -9 -5 3 -6 10 -3 15 9 13 12 11
12 -6z m3 -45 c0 -5 -5 -10 -11 -10 -5 0 -7 5 -4 10 3 6 8 10 11 10 2 0 4 -4
4 -10z m-3 -49 c0 -11 -5 -18 -9 -15 -4 3 -5 11 -1 19 7 21 12 19 10 -4z
m-237 -108 c-11 -17 -11 -17 -6 0 3 10 6 24 7 30 0 9 2 9 5 0 3 -7 0 -20 -6
-30z m10 -43 c0 -5 -2 -10 -4 -10 -3 0 -8 5 -11 10 -3 6 -1 10 4 10 6 0 11 -4
11 -10z"/>
<path d="M3010 3663 c0 -5 5 -14 12 -21 9 -9 8 -12 -5 -12 -13 0 -17 -9 -17
-41 0 -35 -4 -41 -28 -50 -16 -5 -29 -15 -29 -22 0 -7 -4 -39 -8 -72 -8 -57
-7 -59 10 -45 11 9 16 10 11 3 -4 -7 -3 -13 2 -13 13 0 31 47 36 90 2 19 4 40
5 45 0 6 30 10 65 10 l64 0 -1 -57 c-1 -48 -3 -55 -17 -48 -9 5 -21 5 -28 1
-6 -3 -29 -6 -52 -4 -22 1 -40 -2 -40 -8 0 -5 4 -9 8 -9 8 0 7 -69 -2 -137
l-5 -33 70 0 c47 0 68 3 64 11 -4 6 -8 44 -9 85 -1 53 2 74 12 74 6 0 12 -4
12 -10 0 -5 9 -10 20 -10 19 0 21 5 18 73 -2 39 -7 72 -13 73 -32 3 -40 16
-37 54 3 34 1 40 -14 40 -16 0 -15 3 6 20 14 11 20 20 14 20 -6 0 -23 -9 -38
-21 l-26 -20 -30 21 c-16 12 -30 17 -30 13z m60 -283 c0 -5 -5 -10 -11 -10 -5
0 -7 5 -4 10 3 6 8 10 11 10 2 0 4 -4 4 -10z m0 -114 c0 -3 -4 -8 -10 -11 -5
-3 -10 -1 -10 4 0 6 5 11 10 11 6 0 10 -2 10 -4z"/>
<path d="M2909 3368 c-1 -7 -1 -34 1 -60 2 -44 1 -46 -24 -44 -14 2 -26 0 -26
-4 0 -5 -9 -6 -20 -3 -29 8 -72 -5 -64 -19 8 -12 6 -123 -2 -150 -5 -16 2 -18
59 -18 l64 0 0 81 c1 44 4 83 7 86 3 3 13 -2 22 -11 26 -27 36 -6 32 70 -2 48
-7 68 -16 67 -6 -2 -12 2 -12 7 0 15 -20 12 -21 -2z m-62 -160 c-3 -8 -6 -5
-6 6 -1 11 2 17 5 13 3 -3 4 -12 1 -19z m3 -28 c0 -5 -5 -10 -11 -10 -5 0 -7
5 -4 10 3 6 8 10 11 10 2 0 4 -4 4 -10z m-3 -35 c0 -8 -4 -12 -9 -9 -5 3 -6
10 -3 15 9 13 12 11 12 -6z m3 -49 c0 -3 -4 -8 -10 -11 -5 -3 -10 -1 -10 4 0
6 5 11 10 11 6 0 10 -2 10 -4z"/>
<path d="M2639 2833 c-12 -15 -12 -16 4 -10 10 4 23 7 28 7 5 0 9 5 9 10 0 16
-26 12 -41 -7z"/>
<path d="M976 2783 c-3 -3 -1 -12 5 -20 9 -10 8 -13 -4 -13 -11 0 -17 -12 -19
-42 -2 -35 -7 -44 -25 -46 -23 -3 -28 -17 -38 -97 -6 -46 -5 -51 13 -52 28 -2
49 51 52 132 0 6 28 10 63 10 l63 0 1 -51 1 -50 -37 -3 c-104 -9 -104 -8 -94
-23 8 -14 6 -120 -3 -150 -5 -16 3 -18 66 -18 51 0 69 3 64 11 -9 15 -7 149 2
158 4 3 9 0 11 -6 3 -7 13 -13 24 -13 17 0 19 8 19 75 0 41 -3 74 -7 73 -5 -1
-17 1 -28 5 -17 6 -20 14 -17 47 3 34 1 40 -14 40 -16 0 -15 3 6 20 20 15 21
20 8 20 -9 0 -20 -4 -23 -10 -15 -25 -42 -29 -62 -10 -12 10 -24 16 -27 13z
m54 -283 c0 -5 -5 -10 -11 -10 -5 0 -7 5 -4 10 3 6 8 10 11 10 2 0 4 -4 4 -10z
m0 -114 c0 -3 -4 -8 -10 -11 -5 -3 -10 -1 -10 4 0 6 5 11 10 11 6 0 10 -2 10
-4z"/>
<path d="M1226 2723 c-3 -4 -1 -12 5 -20 9 -10 8 -13 -5 -13 -12 0 -16 -10
-16 -39 0 -39 -11 -55 -39 -56 -14 0 -16 -4 -26 -90 -6 -47 -5 -51 14 -51 12
0 21 6 21 13 0 7 5 12 11 11 7 -2 12 16 14 47 1 28 2 55 3 60 1 6 30 10 65 10
l62 0 3 -52 c3 -45 1 -51 -15 -48 -10 1 -29 -4 -42 -12 -13 -8 -20 -10 -17 -4
5 7 -2 11 -19 11 -31 0 -33 -5 -37 -107 l-3 -83 62 0 c62 0 63 0 62 28 -4 68
2 142 11 142 6 0 10 -11 10 -24 0 -17 5 -23 18 -22 26 2 39 26 45 86 4 30 7
55 7 56 0 0 21 -1 48 -2 64 -3 77 2 80 31 1 13 2 28 3 32 4 22 -3 33 -18 33
-15 0 -13 4 7 20 20 16 22 20 8 20 -10 0 -18 -4 -18 -8 0 -5 -11 -14 -24 -20
-19 -9 -28 -7 -44 9 -12 11 -23 15 -27 9 -3 -6 -1 -10 4 -10 6 0 11 -4 11 -10
0 -5 -7 -10 -15 -10 -11 0 -15 -11 -15 -39 0 -45 -13 -59 -35 -37 -8 8 -24 18
-35 21 -15 5 -18 11 -11 23 8 16 7 49 -1 58 -3 2 -19 5 -37 7 -18 2 -41 11
-51 20 -10 8 -21 13 -24 10z m52 -305 c0 -29 -3 -37 -8 -24 -6 18 -2 66 6 66
1 0 2 -19 2 -42z m2 -98 c0 -5 -2 -10 -4 -10 -3 0 -8 5 -11 10 -3 6 -1 10 4
10 6 0 11 -4 11 -10z"/>
<path d="M1310 2715 c-14 -16 -10 -18 14 -9 9 3 16 10 16 15 0 14 -16 11 -30
-6z"/>
<path d="M4406 1773 c-3 -15 -8 -50 -12 -76 -5 -43 -4 -48 13 -45 31 5 41 23
44 84 4 54 2 59 -18 62 -16 2 -22 -3 -27 -25z"/>
</g>
</svg>
